<svg xmlns="http://www.w3.org/2000/svg" xmlns:xlink="http://www.w3.org/1999/xlink" viewBox="0 0 1049.71 973.08"><defs><style>.cls-1{fill:#324b4b;}.cls-1,.cls-2,.cls-3,.cls-4,.cls-5{stroke:#fff;stroke-miterlimit:10;}.cls-2{fill:none;}.cls-3{fill:url(#radial-gradient);}.cls-4{fill:#004425;}.cls-5{font-size:99px;fill:#bcc3c3;font-family:MyriadPro-Regular, Myriad Pro;}.cls-6{letter-spacing:-0.01em;}.cls-7{letter-spacing:0em;}.cls-8{letter-spacing:0.01em;}.cls-9{letter-spacing:0em;}.cls-10{letter-spacing:0.01em;}.cls-11{letter-spacing:0em;}</style><radialGradient id="radial-gradient" cx="469.53" cy="87" r="241.78" gradientUnits="userSpaceOnUse"><stop offset="0" stop-color="#004425"/><stop offset="1"/></radialGradient></defs><g id="Layer_1" data-name="Layer 1"><g id="handshake"><path class="cls-1" d="M481.79,896.74a35.66,35.66,0,0,1-6.86,21l-7.55,10.38-21.56,29.65a35.83,35.83,0,1,1-58-42.15l22-30.3,7.08-9.73a35.84,35.84,0,0,1,64.82,21.1Z"/><path class="cls-2" d="M780.08,798.16a5.64,5.64,0,0,1,4.77,2.87"/><path class="cls-2" d="M784.85,801l-4.77-2.87A5.64,5.64,0,0,1,784.85,801Z"/><path class="cls-1" d="M245.79,741.74A35.57,35.57,0,0,1,241,759.63a34.73,34.73,0,0,1-2,3.16l-15.62,21.48a35.84,35.84,0,1,1-58-42.16L181,720.64a37,37,0,0,1,2.91-3.52,35.84,35.84,0,0,1,61.91,24.62Z"/><path class="cls-1" d="M356.79,750.74a35.66,35.66,0,0,1-6.86,21L317.4,816.52l-30.35,41.74a35.84,35.84,0,1,1-58-42.16l30.83-42.38L292,729.64a35.84,35.84,0,0,1,64.82,21.1Z"/><path class="cls-1" d="M417.79,824.74a35.66,35.66,0,0,1-6.86,21l-19,26.18-28.1,38.64a35.84,35.84,0,1,1-58-42.15l28.58-39.29L353,803.64a35.84,35.84,0,0,1,64.82,21.1Z"/><path class="cls-1" d="M803.6,788.06,640.09,689.65a10.39,10.39,0,0,0-10.72,17.81l150.71,90.7,4.77,2.87h0c2.18,3.56,2.82,11.57-4.77,29.46-13.79,32.5-54.38,18-55.6,17.51h0l-127.7-73.73a11.5,11.5,0,0,0-5.79-1.56,11.63,11.63,0,0,0-5.83,21.69l128.61,74.25,0,0c.49.46,4.56,5.19-7.77,28.35-12.86,24.17-54.18,13.58-55.41,13.26h0L548.19,860.37a9.82,9.82,0,0,0-4.35-1,9.93,9.93,0,0,0-4.36,18.86l99.86,48.69-.92,1.36s-4.68,24.23-27,30.23c-1.66,3-37.34,8-70.34,0l-56-17.19,9.41-12.95a55,55,0,0,0-59.74-85.25,44.37,44.37,0,0,0-11.9-58.8l-13-9.43a44.25,44.25,0,0,0-35.86-7.4,51.43,51.43,0,0,0-18-59.41l-7.2-5.24A51.44,51.44,0,0,0,277,714.18L267,727.83a55,55,0,0,0-98.58-22.2L127.58,650l131.5-237.5c42,33,109,36,109,36l-59,90s-10,10-2,44c3,18,34,23,73,12,11-1,32-13,51.31-29s40.69-46,40.69-46l44-13s133,61,328,217C887.08,797.5,803.6,788.06,803.6,788.06Z"/><path class="cls-2" d="M780.08,798.16a5.64,5.64,0,0,1,4.77,2.87"/><line class="cls-2" x1="242.87" y1="761.04" x2="240.98" y2="759.63"/><path class="cls-1" d="M926.08,643.5l-38,39-31.69,22.3C702.7,579.1,515.08,480.5,515.08,480.5s-8,5-55,20c-79,93-114,88-136,75s95-158,95-158,99.5-38.9,231.5-15.1c13.5,5.9,100.5,18.1,114.5,18.1s28.86-8,28.86-8Z"/><path class="cls-1" d="M1049.08,616.5c-61,54-87,53-87,53l-171-303,86-54S1033.08,585.5,1049.08,616.5Z"/><path class="cls-1" d="M267.09,362.43S108.83,634.13,90,663.5C12.72,637.72.57,614.71.57,614.71L177.29,315Z"/></g><g id="contact"><path class="cls-3" d="M721.19,166H215.85a79,79,0,0,1,0-158h554a78.65,78.65,0,0,1,32.35,6.91,77.46,77.46,0,0,0-25.85-4.41c-45.84,0-83,39.85-83,89C693.35,126,704.11,149.7,721.19,166Z"/><ellipse class="cls-2" cx="756.85" cy="89" rx="59" ry="64.5"/><path class="cls-4" d="M783.7,4.91A77.46,77.46,0,0,0,757.85.5c-45.84,0-83,39.85-83,89,0,26.45,10.76,50.2,27.84,66.5a79.57,79.57,0,0,0,55.16,22.5c45.84,0,83-39.85,83-89C840.85,50,816.88,16.56,783.7,4.91ZM697.85,89c0-35.62,26.42-64.5,59-64.5s59,28.88,59,64.5-26.42,64.5-59,64.5S697.85,124.62,697.85,89Z"/><ellipse class="cls-2" cx="756.85" cy="89" rx="59" ry="64.5"/><ellipse class="cls-2" cx="756.85" cy="89" rx="59" ry="64.5"/><g id="mail"><polygon class="cls-4" points="795.35 73.34 795.35 73.69 762.49 90.07 722.35 69.51 722.35 68.54 795.35 73.34"/><polygon class="cls-4" points="786.18 97.44 783.99 99.73 795.35 111.07 795.35 111.2 722.35 116 722.35 115.83 738.75 100.86 735.8 98.32 722.35 110.39 722.35 73.86 758.62 92 762.49 93.94 766.28 92.01 795.35 77.17 795.35 106.73 786.18 97.44"/></g><text class="cls-5" transform="translate(176.21 116.4)"><tspan class="cls-6">C</tspan><tspan x="56.33" y="0">o</tspan><tspan class="cls-7" x="110.68" y="0">n</tspan><tspan x="165.23" y="0">ta</tspan><tspan class="cls-8" x="245.72" y="0">c</tspan><tspan class="cls-9" x="291.35" y="0">t </tspan><tspan class="cls-10" x="345.11" y="0">M</tspan><tspan class="cls-11" x="425.3" y="0">e</tspan></text></g></g></svg>