<svg id="Layer_1" data-name="Layer 1" xmlns="http://www.w3.org/2000/svg" xmlns:xlink="http://www.w3.org/1999/xlink" viewBox="0 0 705.69 645.51"><defs><style>.cls-1{fill:#0f3653;}.cls-2,.cls-34{fill:#fff;}.cls-3{fill:#66d0d8;}.cls-4{fill:#e0939e;}.cls-5{fill:#f7987c;}.cls-6{fill:#fadc66;}.cls-7{fill:#f1b100;}.cls-8{fill:#6c9300;}.cls-9{fill:#07aec1;}.cls-10{fill:#2dcac7;}.cls-11{fill:#2ccecb;}.cls-12{fill:url(#linear-gradient);}.cls-13,.cls-27{fill:none;}.cls-14{fill:url(#linear-gradient-2);}.cls-15{fill:#1b73ba;}.cls-16{fill:#1c88c7;}.cls-17{fill:#2ba977;}.cls-18{fill:#ebebeb;}.cls-19{fill:url(#linear-gradient-3);}.cls-20{fill:url(#linear-gradient-4);}.cls-21{isolation:isolate;opacity:0.44;fill:url(#radial-gradient);}.cls-22{fill:#0b2e3c;}.cls-23{fill:#2dd2cf;}.cls-24{fill:#fff9fe;}.cls-25{fill:#2ccfcc;}.cls-26{fill:#f15424;}.cls-27{stroke:#fff;stroke-miterlimit:10;stroke-width:4px;}.cls-28{fill:#0e1240;}.cls-29{fill:#dd6358;}.cls-30{fill:#ffda11;}.cls-31{fill:#e7c627;}.cls-32{fill:#fc5527;}.cls-33{fill:#2bccc7;}.cls-34{font-size:60px;font-family:Calibri-Bold, Calibri;font-weight:700;letter-spacing:0.2em;}.cls-35{fill:#000e38;}</style><linearGradient id="linear-gradient" x1="85.43" y1="363.06" x2="615.45" y2="344.71" gradientUnits="userSpaceOnUse"><stop offset="0.38" stop-color="#e6e6e6"/><stop offset="0.72" stop-color="#fff"/></linearGradient><linearGradient id="linear-gradient-2" x1="79.98" y1="310.15" x2="579.98" y2="292.85" gradientUnits="userSpaceOnUse"><stop offset="0.38" stop-color="#1a1a1a"/><stop offset="0.72" stop-color="#333"/></linearGradient><linearGradient id="linear-gradient-3" x1="-2486.96" y1="328.42" x2="-2473.46" y2="340.04" gradientTransform="translate(7706.74 -662) scale(2.96 2.99)" gradientUnits="userSpaceOnUse"><stop offset="0" stop-color="#5a9fd4"/><stop offset="1" stop-color="#306998"/></linearGradient><linearGradient id="linear-gradient-4" x1="-2467.8" y1="347.12" x2="-2472.52" y2="340.44" gradientTransform="translate(7706.74 -662) scale(2.96 2.99)" gradientUnits="userSpaceOnUse"><stop offset="0" stop-color="#ffd43b"/><stop offset="1" stop-color="#ffe873"/></linearGradient><radialGradient id="radial-gradient" cx="-2864.73" cy="523.12" r="3.57" gradientTransform="translate(-2525.6 -3216.85) rotate(-90) scale(1.26 5.55)" gradientUnits="userSpaceOnUse"><stop offset="0" stop-color="#b8b8b8" stop-opacity="0.5"/><stop offset="1" stop-color="#7f7f7f" stop-opacity="0"/></radialGradient></defs><g id="left-tab"><rect class="cls-1" x="9.19" y="66.87" width="211" height="166" rx="17.52"/><path class="cls-2" d="M20.75,98.87H209.63a1.56,1.56,0,0,1,1.56,1.56v107.7a13.74,13.74,0,0,1-13.74,13.74H29.39a10.2,10.2,0,0,1-10.2-10.2V100.43A1.56,1.56,0,0,1,20.75,98.87Z"/><rect class="cls-3" x="30.19" y="109.87" width="59" height="35"/><rect class="cls-4" x="97.19" y="109.87" width="101" height="35"/><rect class="cls-5" x="30.19" y="150.87" width="59" height="21"/><rect class="cls-6" x="30.19" y="177.87" width="59" height="17"/><rect class="cls-3" x="30.19" y="200.87" width="59" height="13"/><circle class="cls-7" cx="27.19" cy="83.87" r="4"/><circle class="cls-8" cx="39.19" cy="83.87" r="4"/><circle class="cls-9" cx="52.19" cy="83.87" r="4"/><rect class="cls-10" x="160.19" y="79.87" width="30" height="8" rx="4"/><polygon class="cls-11" points="220.19 150.87 220.19 79.87 270.41 149.87 220.19 150.87"/><polygon class="cls-11" points="89.19 232.87 18.59 230.87 89.19 331.37 89.19 232.87"/></g><g id="Screen"><path class="cls-12" d="M596,150.87H102.41a13.22,13.22,0,0,0-13.22,13.22V471.65c0,.26,0,.51,0,.76a13.21,13.21,0,0,0,13.19,12.46H310.35l-12.16,62.5H203.45l-5.26,13h299l-5-9.8-97.43-1.08L384.5,484.87H596a13.22,13.22,0,0,0,13.22-13.22V164.09A13.22,13.22,0,0,0,596,150.87Zm-9.78,282h-476v-264h476Z" transform="translate(0)"/><rect class="cls-13" x="110.19" y="168.87" width="476" height="264"/><rect class="cls-14" x="110.19" y="168.87" width="476" height="264"/></g><g id="icons"><g id="css"><path class="cls-15" d="M139.66,251l-6-72.87,71.21.15L198.61,251l-29,8.41Z" transform="translate(0)"/><path class="cls-16" d="M169.46,252.35V185l29.33.1-5.23,60.22Z" transform="translate(0)"/><path class="cls-2" d="M191.55,193.63H145.41l1.25,9h22.25l-20.62,8.85,1.2,8.33h31.22l-1.16,12.3-10.88,2.12-9.87-2.53-.76-7h-8.5l1.17,14.05L169.52,244l18-5.73,2.3-27.47H170.79l20.76-8.62Z" transform="translate(0)"/></g><g id="django"><path class="cls-17" d="M369.69,218.37v15a16.36,16.36,0,0,0-4.35-.51c-10.45,0-17.19,6.5-17.19,16.52s5.91,15.41,17.3,15.78c.42,0,.84,0,1.27,0a66.7,66.7,0,0,0,13-1.34V218.37Zm-11.26,31.4c0-5.37,2.9-8.43,7.92-8.43a10,10,0,0,1,3.34.51v15.77a23.37,23.37,0,0,1-3.41.25C361.2,257.87,358.43,255,358.43,249.77Z" transform="translate(0)"/><path class="cls-17" d="M385.69,234.37v19.37c0,8.55-.45,11.8-1.88,14.6s-3.51,4.54-7.93,6.58l9.29,4.33c4.42-2.17,6.56-4.14,8.19-7.27s2.33-7,2.33-14.85V234.37Zm-1-16v10h10v-10Z" transform="translate(0)"/></g><g id="html"><path d="M151.13,405.6l-5.72-64.23h62.92l-5.73,64.22-25.77,7.14Z" transform="translate(0)"/><path d="M176.69,408l20.82-5.77,4.9-54.88H176.69Z" transform="translate(0)"/><path class="cls-18" d="M176.69,354.37h-19.9l.19,2.13,2,21.87h17.76v-8H166.35l-.71-8h11.05Zm0,36.65-8.78-2.37-.56-6.28h-7.91l1.11,12.37,16.13,4.48h0V391Z" transform="translate(0)"/><path d="M158.69,324.37v4h-4v-4h-3v12h3v-4h4v4h4v-12Zm6,0v4h4v8h4v-8h3v-4Zm22,0-2.47,4.22-2.48-4.22h-4v12h3v-6.06l3.46,4.06h.07l2.47-4.06v6.06h4v-12Zm10,8v-8h-4v12h10v-4Z" transform="translate(0)"/><path class="cls-2" d="M176.69,370.37v8h9.85l-.93,10.38-8.92,2.4v8.33l16.4-4.55.12-1.35,1.88-21.06.2-2.15Zm0-16v8H196l.16-1.8.37-4.05.19-2.15Z" transform="translate(0)"/></g><g id="Python"><path class="cls-19" d="M387.52,319.54a50.43,50.43,0,0,0-8.72-.7,45.91,45.91,0,0,0-8,.7c-7.09,1.3-8.37,4-8.37,9v7.1H356c-5.22,0-9.8,3.15-11.23,9.12a33.55,33.55,0,0,0,0,18.27c1.28,5.33,4.33,9.12,9.56,9.12h5.1v-7.73A10.76,10.76,0,0,1,370,353.93h17.25a8.68,8.68,0,0,0,8.68-8.68V328.57C395.89,323.86,392.06,320.33,387.52,319.54Zm-18,11.56a3.31,3.31,0,1,1,3.25-3.3A3.28,3.28,0,0,1,369.5,331.1Z" transform="translate(0)"/><path class="cls-20" d="M415.52,344.79c-1.36-5.2-4-9.12-9.47-9.12h-7.12V346a11.13,11.13,0,0,1-10.84,11h-17a8.7,8.7,0,0,0-8.68,8.68v16.68c0,4.7,3.94,7.47,8.37,8.82a27,27,0,0,0,16.72,0c4.22-1.27,8.37-3.81,8.37-8.82v-7.11H377.64v-3h28.41c5.51,0,7.56-3.64,9.47-9.12S417.42,352,415.52,344.79ZM389,379.59a3.31,3.31,0,1,1-3.26,3.3A3.27,3.27,0,0,1,389,379.59Z" transform="translate(0)"/><path class="cls-21" d="M402.74,401.86c0,2.49-10.42,4.51-23.27,4.51s-23.27-2-23.27-4.51,10.42-4.51,23.27-4.51S402.74,399.37,402.74,401.86Z" transform="translate(0)"/></g></g><g id="Settings1"><polygon class="cls-22" points="283.37 83.87 283.37 74.69 278.09 66.87 285.19 63.87 288.19 54.87 288.19 45.89 293.93 45.89 300.19 39.87 303.19 30.87 311.19 32.87 318.19 28.87 322.19 21.87 329.19 25.87 339.19 25.87 344.93 21.87 349.19 27.17 358.69 31.49 366.19 29.87 368.19 37.87 376.19 43.87 382.19 44.87 382.19 52.87 385.19 61.87 392.19 64.87 388.19 71.87 388.19 81.87 392.19 87.87 386.19 92.87 382.19 100.87 384.53 109.87 376.97 109.87 370.19 116.87 369.19 124.87 358.69 123.65 352.13 127.37 349.19 134.09 342.19 129.87 331.19 129.87 325.49 134.09 321.53 127.37 312.19 123.87 304.19 125.87 303.19 117.87 297.19 111.87 288.05 109.87 290.19 100.87 286.19 94.87 278.09 89.81 283.37 83.87"/><circle class="cls-23" cx="335.19" cy="77.87" r="37"/><polygon class="cls-24" points="385.79 37.55 385.79 31.99 382.59 27.25 386.89 25.44 388.71 19.98 388.71 14.55 392.19 14.55 395.98 10.9 397.79 5.45 402.64 6.66 406.88 4.24 409.3 0 413.54 2.42 419.6 2.42 423.07 0 425.65 3.21 431.4 5.83 435.95 4.84 437.16 9.69 442 13.32 445.64 13.93 445.64 18.77 447.45 24.22 451.69 26.04 449.27 30.28 449.27 36.34 451.69 39.97 448.06 43 445.64 47.84 447.05 53.29 442.48 53.29 438.37 57.53 437.76 62.38 431.4 61.64 427.43 63.89 425.65 67.96 421.41 65.41 414.75 65.41 411.3 67.96 408.9 63.89 403.24 61.77 398.4 62.98 397.79 58.14 394.16 54.51 388.63 53.29 389.92 47.84 387.5 44.21 382.59 41.15 385.79 37.55"/><circle class="cls-25" cx="417.17" cy="33.91" r="22.41"/></g><g id="Tag"><circle class="cls-26" cx="539.19" cy="98.87" r="42"/><polyline class="cls-27" points="544.19 89.87 558.77 98.87 544.19 108.53"/><polyline class="cls-27" points="531.77 89.87 517.19 98.87 531.77 108.53"/></g><g id="settings2"><path class="cls-28" d="M701.19,495.87A39,39,0,0,1,651,533.22L582,625.76a9,9,0,0,1-12.53,1.84l-5.37-4a9,9,0,0,1-1.83-12.53l68.51-92a39,39,0,0,1,30-62.17l-11.67,17,8,32,30-2,13.14-16.19A39.44,39.44,0,0,1,701.19,495.87Z" transform="translate(0)"/><path class="cls-13" d="M663.38,618.6a3.39,3.39,0,0,1-2.72,1.35,3.35,3.35,0,0,1-2-.68l-55.47-41.75a3.4,3.4,0,0,1,2.05-6.11,3.38,3.38,0,0,1,2,.68l55.46,41.76A3.39,3.39,0,0,1,663.38,618.6Z" transform="translate(0)"/><path class="cls-13" d="M672.38,607.6a3.39,3.39,0,0,1-2.72,1.35,3.35,3.35,0,0,1-2-.68l-55.47-41.75a3.4,3.4,0,0,1,2.05-6.11,3.38,3.38,0,0,1,2,.68l55.46,41.76A3.39,3.39,0,0,1,672.38,607.6Z" transform="translate(0)"/><path class="cls-29" d="M677.77,596.63l-47.44-35.72-9.73-7.32a12.2,12.2,0,0,0-6.16-2.41,8.81,8.81,0,0,0-2.13-7.26,8.56,8.56,0,0,0-1-.93l-6.73-5.5L593.7,550.84,535,506.67l-14.85-8.8-2,3,11.41,12.75,58.51,44L577.23,571l7.84,6.42a7.21,7.21,0,0,0,1.57,1,7.29,7.29,0,0,0,7.67-1,12.27,12.27,0,0,0,4.16,5.59l9.88,7.44L655.63,626a12.34,12.34,0,0,0,17.26-2.43l7.31-9.71A12.34,12.34,0,0,0,677.77,596.63Zm-14.39,22a3.39,3.39,0,0,1-2.72,1.35,3.35,3.35,0,0,1-2-.68l-46-34.61-9.49-7.14a3.4,3.4,0,0,1,2.05-6.11,3.38,3.38,0,0,1,2,.68l9.45,7.12,46,34.64A3.39,3.39,0,0,1,663.38,618.6Zm9-11a3.39,3.39,0,0,1-2.72,1.35,3.35,3.35,0,0,1-2-.68l-46.5-35-9-6.75a3.4,3.4,0,0,1,2.05-6.11,3.38,3.38,0,0,1,2,.68l8.94,6.73,46.52,35A3.39,3.39,0,0,1,672.38,607.6Z" transform="translate(0)"/><polyline class="cls-13" points="535.04 506.67 520.19 497.87 518.19 500.87 529.6 513.62"/><path class="cls-28" d="M663.38,618.6a3.39,3.39,0,0,1-2.72,1.35,3.35,3.35,0,0,1-2-.68l-55.47-41.75a3.4,3.4,0,0,1,2.05-6.11,3.38,3.38,0,0,1,2,.68l55.46,41.76A3.39,3.39,0,0,1,663.38,618.6Z" transform="translate(0)"/><path class="cls-28" d="M672.38,607.6a3.39,3.39,0,0,1-2.72,1.35,3.35,3.35,0,0,1-2-.68l-55.47-41.75a3.4,3.4,0,0,1,2.05-6.11,3.38,3.38,0,0,1,2,.68l55.46,41.76A3.39,3.39,0,0,1,672.38,607.6Z" transform="translate(0)"/></g><g id="right-tab"><rect class="cls-1" x="455.69" y="193.37" width="250" height="197" rx="15.56"/><path class="cls-29" d="M468.19,230.87h227a0,0,0,0,1,0,0V371.39a8.48,8.48,0,0,1-8.48,8.48H478.59a10.4,10.4,0,0,1-10.4-10.4V230.87A0,0,0,0,1,468.19,230.87Z"/><circle class="cls-30" cx="476.19" cy="212.87" r="5"/><circle class="cls-31" cx="492.19" cy="212.87" r="5"/><circle class="cls-32" cx="506.19" cy="212.87" r="5"/><rect class="cls-33" x="634.19" y="207.87" width="37" height="10" rx="5"/><text class="cls-34" transform="translate(558.13 320.49)">{}</text></g><path id="Search" class="cls-35" d="M281,342.6A111,111,0,0,0,89.19,314.3q-3.19,4.13-6,8.56a110.78,110.78,0,0,0,6,126.58,112.77,112.77,0,0,0,8.41,9.71l-8.38,13.26L53.38,529.08,19.71,582.32,3.61,607.79A23.12,23.12,0,0,0,.4,624.51h0a23.17,23.17,0,0,0,9,14.38c.47.36,1,.69,1.46,1l3.14,2a23.28,23.28,0,0,0,32.12-7.24l51.32-81.15,42.44-67.11a110.95,110.95,0,0,0,78.7-1.53,111.56,111.56,0,0,0,57.2-52A110.9,110.9,0,0,0,281,342.6ZM177.19,472.87A90.5,90.5,0,0,1,150.87,469q-2.82-.86-5.56-1.89a90.91,90.91,0,1,1,31.88,5.78Z" transform="translate(0)"/></svg>