<svg id="Layer_1" data-name="Layer 1" xmlns="http://www.w3.org/2000/svg" viewBox="0 0 647.01 465.02"><defs><style>.cls-1{fill:#fff;}.cls-2,.cls-3,.cls-5,.cls-6,.cls-7{fill:none;stroke:#231f20;stroke-miterlimit:10;}.cls-3{stroke-dasharray:11.79 11.79;}.cls-4{fill:#231f20;}.cls-5{stroke-dasharray:12.25 12.25;}.cls-6{stroke-width:2px;}.cls-7{stroke-dasharray:11.67 11.67;}.cls-10,.cls-13,.cls-15,.cls-8{font-size:23px;}.cls-10,.cls-13,.cls-14,.cls-16,.cls-17,.cls-20,.cls-8{font-family:MyriadPro-Regular, Myriad Pro;}.cls-9{letter-spacing:0.01em;}.cls-10{letter-spacing:0.04em;}.cls-11{letter-spacing:0em;}.cls-12{letter-spacing:-0.05em;}.cls-13{letter-spacing:0em;}.cls-14{font-size:36px;}.cls-16{font-size:28px;}.cls-17,.cls-20,.cls-22{font-size:22px;}.cls-18{letter-spacing:0.02em;}.cls-19{letter-spacing:0.01em;}.cls-20{letter-spacing:-0.03em;}.cls-21{letter-spacing:0em;}.cls-22{font-family:BerlinSansFBDemi-Bold, Berlin Sans FB Demi;font-weight:700;}</style></defs><line class="cls-1" x1="471.55" y1="70.59" x2="471.55" y2="406.59"/><line class="cls-2" x1="471.55" y1="73.42" x2="471.55" y2="79.42"/><line class="cls-3" x1="471.55" y1="91.21" x2="471.55" y2="391.87"/><line class="cls-2" x1="471.55" y1="397.76" x2="471.55" y2="403.76"/><polygon class="cls-4" points="468.37 79.33 469.31 79.67 471.55 73.51 473.79 79.67 474.73 79.33 471.55 70.59 468.37 79.33"/><polygon class="cls-4" points="468.37 397.85 469.31 397.51 471.55 403.67 473.79 397.51 474.73 397.85 471.55 406.59 468.37 397.85"/><line class="cls-2" x1="580.73" y1="328.59" x2="574.73" y2="328.59"/><polyline class="cls-5" points="562.48 328.59 467.13 328.59 78.79 328.59"/><line class="cls-2" x1="72.66" y1="328.59" x2="66.66" y2="328.59"/><polygon class="cls-4" points="574.81 325.41 574.47 326.35 580.63 328.59 574.47 330.83 574.81 331.77 583.55 328.59 574.81 325.41"/><polygon class="cls-4" points="72.58 325.41 72.92 326.35 66.76 328.59 72.92 330.83 72.58 331.77 63.84 328.59 72.58 325.41"/><line class="cls-1" x1="87.55" y1="71.59" x2="475.55" y2="329.59"/><line class="cls-6" x1="89.55" y1="72.92" x2="469.6" y2="325.63"/><path class="cls-4" d="M95.62,88.48a1,1,0,0,0,.51-1.32l-6.2-14,15.3.31a1,1,0,1,0,0-2L88.4,71.14a1,1,0,0,0-.85.45,1,1,0,0,0-.08,1L94.3,88a1,1,0,0,0,.36.43A1,1,0,0,0,95.62,88.48Z"/><path class="cls-4" d="M465.13,331.69a7.52,7.52,0,1,0-2.1-10.43A7.51,7.51,0,0,0,465.13,331.69Z"/><path class="cls-2" d="M377.56,297.15c.38,17.29,5.92,90.92,73.6,70.53"/><path class="cls-4" d="M377.58,297.55a7.35,7.35,0,0,0,4.55,1.56,13.67,13.67,0,0,1-4.58-5.52,14.37,14.37,0,0,1-4.51,5.58A7.65,7.65,0,0,0,377.58,297.55Z"/><path class="cls-4" d="M450.75,367.72a7.36,7.36,0,0,1-2.81-3.9,13.56,13.56,0,0,0,6.61,2.77,14.4,14.4,0,0,0-4,5.94A7.67,7.67,0,0,1,450.75,367.72Z"/><path class="cls-2" d="M417.72,271.45c5-8.61,21-31,44.89-15.88"/><path class="cls-4" d="M418,271.13a7.46,7.46,0,0,0-3.2-3.6,13.61,13.61,0,0,1,1.27,7.06,14.46,14.46,0,0,1,6.67-2.64A7.56,7.56,0,0,0,418,271.13Z"/><path class="cls-4" d="M462.27,255.37a7.36,7.36,0,0,1,1.22-4.65,13.72,13.72,0,0,0,2.06,6.87,14.38,14.38,0,0,0-7.14.67A7.63,7.63,0,0,1,462.27,255.37Z"/><line class="cls-2" x1="87.55" y1="71.59" x2="87.55" y2="77.59"/><line class="cls-7" x1="87.55" y1="89.26" x2="87.55" y2="316.76"/><line class="cls-2" x1="87.55" y1="322.59" x2="87.55" y2="328.59"/><path class="cls-2" d="M126,118.78c-3.45,6.38-12.28,19.66-23.45,13.79"/><path class="cls-4" d="M125.76,119.13a7.37,7.37,0,0,0,3.34,3.46,13.59,13.59,0,0,1-1.55-7,14.38,14.38,0,0,1-6.56,2.9A7.68,7.68,0,0,0,125.76,119.13Z"/><path class="cls-4" d="M102.88,132.74a7.42,7.42,0,0,1-1.13,4.68,13.64,13.64,0,0,0-2.2-6.83,14.5,14.5,0,0,0,7.13-.81A7.69,7.69,0,0,1,102.88,132.74Z"/><text class="cls-8" transform="translate(0 219.38)"><tspan class="cls-9">(</tspan><tspan x="6.78" y="0">X</tspan></text><text class="cls-8" transform="translate(19.92 227.04) scale(0.58)">B</text><text class="cls-8" transform="translate(27.19 219.38)"><tspan xml:space="preserve"> - X</tspan></text><text class="cls-8" transform="translate(57.13 227.04) scale(0.58)">A</text><text class="cls-8" transform="translate(65.34 219.38)">)</text><text class="cls-10" transform="translate(239 393.38)">(<tspan class="cls-11" x="7.47" y="0">Y</tspan></text><text class="cls-8" transform="translate(258.92 401.04) scale(0.58)">B</text><text class="cls-8" transform="translate(266.18 393.38)"><tspan xml:space="preserve"> -</tspan><tspan class="cls-12" x="11.94" y="0"> </tspan><tspan class="cls-11" x="15.75" y="0">Y</tspan></text><text class="cls-13" transform="translate(294.38 401.04) scale(0.58)">A</text><text class="cls-8" transform="translate(302.59 393.38)">)</text><line class="cls-2" x1="97.38" y1="347.59" x2="451.73" y2="347.59"/><polygon class="cls-4" points="103.29 350.77 103.63 349.83 97.47 347.59 103.63 345.35 103.29 344.41 94.55 347.59 103.29 350.77"/><polygon class="cls-4" points="445.81 350.77 445.47 349.83 451.63 347.59 445.47 345.35 445.81 344.41 454.55 347.59 445.81 350.77"/><text class="cls-14" transform="translate(359.31 389.58)">α<tspan class="cls-15" x="19.84" y="0">AB</tspan></text><text class="cls-16" transform="translate(117.87 158.68) scale(0.76 1)">θ</text><text class="cls-16" transform="translate(444.18 293.59) scale(0.76 1)">θ</text><text class="cls-17" transform="translate(454.55 46.97)">180°</text><text class="cls-17" transform="translate(444.98 18.41)">No<tspan class="cls-18" x="26.55" y="0">r</tspan><tspan x="34.28" y="0">th</tspan></text><text class="cls-17" transform="translate(465.55 438.81)">0°</text><text class="cls-17" transform="translate(444.98 459.52)"><tspan class="cls-19">S</tspan><tspan x="10.98" y="0">outh</tspan></text><text class="cls-17" transform="translate(606.15 347.59)">270°</text><text class="cls-17" transform="translate(607.14 319.03)">East</text><text class="cls-17" transform="translate(29.07 347.59)">90°</text><text class="cls-20" transform="translate(19.51 319.03)">W<tspan class="cls-21" x="17.89" y="0">est</tspan></text><text class="cls-22" transform="translate(494.88 313.51)">A</text><text class="cls-22" transform="translate(83.55 55.59)">B</text></svg>