<svg id="Layer_1" data-name="Layer 1" xmlns="http://www.w3.org/2000/svg" viewBox="0 0 589.73 400.61"><defs><style>.cls-1{fill:#fff;}.cls-2,.cls-4,.cls-5,.cls-6,.cls-7,.cls-8{fill:none;}.cls-16,.cls-2,.cls-4,.cls-5,.cls-6,.cls-7,.cls-8{stroke:#231f20;stroke-miterlimit:10;}.cls-16,.cls-3{fill:#231f20;}.cls-4{stroke-dasharray:12.06 3.01;}.cls-5{stroke-dasharray:11.91 2.98;}.cls-6{stroke-dasharray:12.73 3.18;}.cls-16,.cls-7{stroke-width:2px;}.cls-8{stroke-dasharray:11.67 11.67;}.cls-9{font-size:36px;}.cls-11,.cls-14,.cls-15,.cls-9{font-family:MyriadPro-Regular, Myriad Pro;}.cls-10{font-size:23px;}.cls-11{font-size:28px;}.cls-12{letter-spacing:0em;}.cls-13{letter-spacing:-0.01em;}.cls-14,.cls-15{font-size:26px;}.cls-15{letter-spacing:0em;}</style></defs><line class="cls-1" x1="452.62" y1="353.84" x2="452.62" y2="6.64"/><line class="cls-2" x1="452.62" y1="351.01" x2="452.62" y2="6.64"/><polygon class="cls-3" points="455.8 345.1 454.86 344.76 452.62 350.91 450.38 344.76 449.44 345.1 452.62 353.84 455.8 345.1"/><line class="cls-1" x1="326.07" y1="338.59" x2="326.07" y2="67.32"/><line class="cls-2" x1="326.07" y1="338.59" x2="326.07" y2="332.59"/><line class="cls-4" x1="326.07" y1="329.58" x2="326.07" y2="74.83"/><line class="cls-2" x1="326.07" y1="73.32" x2="326.07" y2="67.32"/><line class="cls-1" x1="452.62" y1="323.72" x2="65.56" y2="323.72"/><line class="cls-2" x1="452.62" y1="323.72" x2="446.62" y2="323.72"/><line class="cls-5" x1="443.64" y1="323.72" x2="73.05" y2="323.72"/><line class="cls-2" x1="71.56" y1="323.72" x2="65.56" y2="323.72"/><line class="cls-1" x1="452.62" y1="141.12" x2="326.07" y2="141.12"/><line class="cls-2" x1="452.62" y1="141.12" x2="446.62" y2="141.12"/><line class="cls-6" x1="443.43" y1="141.12" x2="333.67" y2="141.12"/><line class="cls-2" x1="332.07" y1="141.12" x2="326.07" y2="141.12"/><polyline class="cls-2" points="515.11 65.72 409.79 65.72 47.73 65.72"/><polygon class="cls-3" points="53.64 62.54 53.98 63.48 47.83 65.72 53.98 67.96 53.64 68.9 44.9 65.72 53.64 62.54"/><line class="cls-1" x1="80.62" y1="313.96" x2="326.07" y2="134.74"/><line class="cls-7" x1="82.56" y1="312.54" x2="320.3" y2="138.95"/><path class="cls-3" d="M256.5,428.35a1,1,0,0,0-1.06-.93l-15.27,1,5.58-14.25a1,1,0,0,0-1.86-.73l-6.15,15.71a1,1,0,0,0,.12,1,1,1,0,0,0,.87.41l16.84-1.08a1,1,0,0,0,.93-1.06Z" transform="translate(-157.25 -116.12)"/><path class="cls-3" d="M481.68,261.37a7.52,7.52,0,1,0-10.51-1.64A7.53,7.53,0,0,0,481.68,261.37Z" transform="translate(-157.25 -116.12)"/><path class="cls-2" d="M438.18,289.68c3.85,10.27,17,39.4,36.91,20.38" transform="translate(-157.25 -116.12)"/><path class="cls-3" d="M438.36,290.05a7.44,7.44,0,0,0,4.82-.06,13.57,13.57,0,0,1-6.16-3.67,14.57,14.57,0,0,1-2.39,6.76A7.65,7.65,0,0,0,438.36,290.05Z" transform="translate(-157.25 -116.12)"/><path class="cls-3" d="M474.79,310.31a7.36,7.36,0,0,1-4.36-2,13.68,13.68,0,0,0,7.13-.79,14.44,14.44,0,0,0-.63,7.15A7.69,7.69,0,0,1,474.79,310.31Z" transform="translate(-157.25 -116.12)"/><line class="cls-2" x1="68.62" y1="322.72" x2="68.62" y2="316.72"/><line class="cls-8" x1="68.62" y1="305.05" x2="68.62" y2="77.55"/><line class="cls-2" x1="68.62" y1="71.72" x2="68.62" y2="65.72"/><line class="cls-2" x1="78.44" y1="46.72" x2="432.79" y2="46.72"/><polygon class="cls-3" points="84.35 49.9 84.69 48.96 78.54 46.72 84.69 44.48 84.35 43.54 75.62 46.72 84.35 49.9"/><polygon class="cls-3" points="426.88 49.9 426.54 48.96 432.69 46.72 426.54 44.48 426.88 43.54 435.62 46.72 426.88 49.9"/><line class="cls-2" x1="71.44" y1="353.84" x2="323.25" y2="353.84"/><polygon class="cls-3" points="77.35 357.02 77.69 356.08 71.54 353.84 77.69 351.6 77.35 350.66 68.62 353.84 77.35 357.02"/><polygon class="cls-3" points="317.34 357.02 317 356.08 323.15 353.84 317 351.6 317.34 350.66 326.07 353.84 317.34 357.02"/><line class="cls-2" x1="56.02" y1="314.11" x2="56.02" y2="76.69"/><polygon class="cls-3" points="59.2 308.2 58.26 307.86 56.02 314.01 53.78 307.86 52.84 308.2 56.02 316.94 59.2 308.2"/><polygon class="cls-3" points="59.2 82.6 58.26 82.94 56.02 76.79 53.78 82.94 52.84 82.6 56.02 73.86 59.2 82.6"/><text class="cls-9" transform="translate(259.09 235.32)">α<tspan class="cls-10" x="19.84" y="0">AB</tspan></text><text class="cls-11" transform="translate(125.13 384.71)">ABsinαAB</text><text class="cls-11" transform="translate(470.73 208.5)">A<tspan class="cls-12" x="17.14" y="0">B</tspan><tspan class="cls-13" x="32.42" y="0">c</tspan><tspan x="44.8" y="0">osαAB</tspan></text><text class="cls-14" transform="translate(289 104.3)">X</text><text class="cls-15" transform="translate(303.84 112.96) scale(0.58)">A</text><text class="cls-14" transform="translate(375.87 170.2)">Y</text><text class="cls-15" transform="translate(389.93 178.86) scale(0.58)">A</text><text class="cls-14" transform="translate(21.79 208.81)">X</text><text class="cls-14" transform="translate(36.64 217.47) scale(0.58)">B</text><text class="cls-14" transform="translate(234.31 21.76)">Y</text><text class="cls-14" transform="translate(248.38 30.42) scale(0.58)">B</text><text class="cls-14" transform="translate(31.29 353.84)">B</text><text class="cls-14" transform="translate(446.71 394.11)">+X</text><text class="cls-14" transform="translate(0 73.86)">+Y</text><circle class="cls-16" cx="68.62" cy="323.72" r="6.78"/></svg>