<svg xmlns="http://www.w3.org/2000/svg" xmlns:xlink="http://www.w3.org/1999/xlink" viewBox="0 0 852 852"><defs><style>.cls-1{opacity:0.39;}.cls-2{fill:url(#radial-gradient);}.cls-3{fill:#fff;}.cls-4{opacity:0.24;}.cls-10,.cls-5{opacity:0.53;}.cls-5{fill:url(#radial-gradient-2);}.cls-12,.cls-6,.cls-8{fill:#004425;}.cls-6,.cls-9{stroke:#000;}.cls-12,.cls-14,.cls-21,.cls-22,.cls-6,.cls-9{stroke-miterlimit:10;}.cls-7{fill:#bcc3c3;}.cls-10{fill:url(#radial-gradient-3);}.cls-11{fill:#15b9ff;stroke-width:3px;opacity:0.42;}.cls-11,.cls-12,.cls-13,.cls-14,.cls-22{stroke:#bfdbfe;}.cls-11,.cls-13{stroke-linecap:round;stroke-linejoin:round;}.cls-12{opacity:0.93;}.cls-13,.cls-14,.cls-16,.cls-22{fill:none;}.cls-13,.cls-14{stroke-width:5px;}.cls-15{fill:#bfdbfe;}.cls-17{fill:#e0bdaa;}.cls-18{fill:#ccc;}.cls-19{fill:#e6e6e6;}.cls-20,.cls-21{fill:gray;}.cls-21{stroke:#7a545f;}.cls-22{stroke-width:11px;opacity:0.54;}</style><radialGradient id="radial-gradient" cx="425" cy="426" r="425" gradientTransform="translate(850 851.99) rotate(180)" gradientUnits="userSpaceOnUse"><stop offset="0.03" stop-color="#bfdbfe"/><stop offset="0.16" stop-color="#94acd0"/><stop offset="0.29" stop-color="#6b81a6"/><stop offset="0.43" stop-color="#4a5d83"/><stop offset="0.58" stop-color="#304168"/><stop offset="0.72" stop-color="#1e2d54"/><stop offset="0.86" stop-color="#132149"/><stop offset="1" stop-color="#0f1d45"/></radialGradient><radialGradient id="radial-gradient-2" cx="533.66" cy="395.7" r="948.12" gradientUnits="userSpaceOnUse"><stop offset="0" stop-color="#fff"/><stop offset="1" stop-color="#fcee21"/></radialGradient><radialGradient id="radial-gradient-3" cx="357.37" cy="432.76" r="569.67" xlink:href="#radial-gradient-2"/></defs><g id="Layer_2" data-name="Layer 2"><g class="cls-1"><circle class="cls-2" cx="425" cy="426" r="425"/><path class="cls-3" d="M0,426a429.2,429.2,0,0,1,8.08-82.94A424.2,424.2,0,0,1,124.27,125.27a431.58,431.58,0,0,1,64.37-53A423.48,423.48,0,0,1,341.92,8.35,427.11,427.11,0,0,1,508.15,8,426,426,0,0,1,843.74,342.7a424.36,424.36,0,0,1,0,166.59A425.75,425.75,0,0,1,508.15,844a427.11,427.11,0,0,1-166.23-.37,423.95,423.95,0,0,1-153.28-63.9,431.65,431.65,0,0,1-64.37-53A424.87,424.87,0,0,1,0,426Zm0,0a429.56,429.56,0,0,0,8.22,82.9,423.7,423.7,0,0,0,334,333.15,425.2,425.2,0,0,0,165.45-.37,421.65,421.65,0,0,0,152.55-63.6,430.41,430.41,0,0,0,64.07-52.77,423.62,423.62,0,0,0,0-598.63A429.28,429.28,0,0,0,660.25,73.9,421.8,421.8,0,0,0,507.69,10.3a425,425,0,0,0-165.46-.36,423.92,423.92,0,0,0-334,333.15A429.66,429.66,0,0,0,0,426Z"/></g><g class="cls-4"><polygon class="cls-5" points="202.88 475 585.27 224.35 606.58 647.61 202.88 475"/><g id="earth"><path class="cls-6" d="M648.4,608c-33,39.27-69.27,39.09-97.51,11.67,16.51,15.49,33-11.31,41.7-73.16C611.62,561.85,631.33,583,648.4,608Z"/><path class="cls-7" d="M551.09,625.31c-1.34-1.4-2.49-4.91-2.63-7.95s.82-4.57,2.16-3.37c14.45,13,29.68-11.11,37.78-70.93.5-3.69,2.75-5.27,5.11-3.48,19.87,15.15,40.91,36.83,59.28,62.83a19.42,19.42,0,0,1,3.35,8.43c.38,2.89-.14,5.33-1.41,6.74-36.84,41.07-75.35,36.37-103.6,7.77C551.11,625.34,551.1,625.32,551.09,625.31Zm44.84-68.24c-4.84,29.89-11.73,51.52-19.61,63.29a32,32,0,0,1-5.82,6.73c20.83,8.51,44.78,2.92,67.41-22.79A289.12,289.12,0,0,0,595.93,557.07Z"/><path class="cls-6" d="M550,618.84l-.37-.36c-19.66-19.8-33.46-51.39-41.37-83.78a24.9,24.9,0,0,1,12.23-13.11C526.25,566.28,536.79,605.23,550,618.84Z"/><path class="cls-7" d="M549.86,624.05c-19.65-20.59-34-52.56-42.37-87.42a13.15,13.15,0,0,1-.34-3,6.81,6.81,0,0,1,.33-2.36A27.39,27.39,0,0,1,520,517.18c.77-.4,1.66,1.23,2,3.67,5.79,44.71,16,80.68,27.9,92.42,1.35,1.33,2.55,4.91,2.67,8s-.88,4.54-2.23,3.21C550.15,624.36,550,624.21,549.86,624.05ZM510,536.31c5.81,22.23,14.06,42.42,24.5,58.3q-2.06-5.91-3.94-12.64c-4.44-15.82-8.13-34.8-10.89-55.31A22.47,22.47,0,0,0,510,536.31Z"/><path class="cls-8" d="M636.63,237.58c-13.45,32.34-32.22,65.14-51.36,92.16-15.14,21.37-30,38.38-43.16,49.78l-.35.31c-10.78,9.28-19.35,13.86-25.7,14.93-6,1-10.44-1-13-5.69a409.2,409.2,0,0,0-4.21,74.19,356.34,356.34,0,0,0,9.47,71.44,24.9,24.9,0,0,1,12.23-13.11c6.4-3.05,15.13-3.72,26.3-.7l.18.05c13.48,3.67,29.08,12.28,45.58,25.59,19,15.32,38.74,36.49,55.81,61.49C682,568,706.07,494.3,703,405.1,699.92,317,671.87,258.49,636.63,237.58Z"/><path class="cls-7" d="M508.44,538.58a3.33,3.33,0,0,1-.95-2,372.94,372.94,0,0,1-9.61-73.1,422.55,422.55,0,0,1,4.22-75.87,6.42,6.42,0,0,1,.71-2.34c.29-.45.6-.45.86,0,2.42,4.26,6.75,6.07,12.58,4.81,6.49-1.4,15-6.54,25.31-15.88l.36-.32c12.42-11.35,27-28.43,42.08-50.53,18.32-26.77,35.63-58,47.78-88a27.75,27.75,0,0,1,5.25-8.58c2-2.08,3.9-2.88,5.25-2.17,40.64,21.3,70,84.61,73.19,176.93,3.24,93.47-21.73,172.6-60.74,216-2.52,2.82-7.22.88-10.55-4.16-15.77-23.88-34.41-44.7-52.49-60-16.45-14-31.76-22.82-44.48-26.84l-.19-.06c-10.65-3.33-19.41-3.25-25.94-.46a22.77,22.77,0,0,0-11.94,12.14C508.94,538.6,508.69,538.73,508.44,538.58Zm-5-144.2A392.89,392.89,0,0,0,499.8,463a348.15,348.15,0,0,0,8.54,66.44A26.71,26.71,0,0,1,520,517.18c6.68-3.49,15.67-4.38,26.65-1.89l.18,0c13.2,3,29.24,10.93,46.69,24.25s36,31.87,52.86,54.06c29.83-41.6,47.78-108.71,45.12-185.27-2.61-75.37-24.27-130.7-55.73-155.24a505.85,505.85,0,0,1-49.2,83c-16.06,21.87-31.33,38.35-44.25,48.95l-.36.3c-10.62,8.66-19.42,13.14-26.09,14C510.3,400.07,506.15,398.27,503.41,394.38Z"/><path class="cls-6" d="M538.35,281.83c-12.13,20.94-19.8,65.51-22.29,112.93-6,1-10.44-1-13-5.69,5.47-36.62,16.88-75.87,35-106.68Z"/><path class="cls-7" d="M516.21,399.2a.69.69,0,0,1-.35.18c-6.26.78-10.75-1.61-13.44-6.62a10.37,10.37,0,0,1-.32-5.09c5.8-39.39,17.67-79.22,35.72-110.85l.41-.69c1.23-2.06,2.3-1.24,2.4,1.89a20.47,20.47,0,0,1-2.06,9.37c-11,18.37-18.51,59.74-21.06,107.28C517.39,396.81,516.85,398.63,516.21,399.2Zm-11.63-12.51c2.3,3,5.8,4.3,10.31,3.67,1.67-28.68,5.09-55,10-76.15C515.54,336.07,508.74,361.05,504.58,386.69Z"/><path class="cls-6" d="M636.63,237.58c-13.45,32.34-32.22,65.14-51.36,92.16-12.73-56.55-30.91-73.88-46.12-49.24C565.23,237.23,601.31,216.57,636.63,237.58Z"/><path class="cls-7" d="M585.53,337.32c-1.82,1.63-3.53.94-4.14-1.86-12-54.9-28.74-70.23-42.12-49.22-1.23,1.93-2.27,1-2.35-2.1a20.93,20.93,0,0,1,2-9.27l0-.06c26.06-44.52,64-70.89,103.29-50.2,2.69,1.41,2.42,8.25-.59,15.29a500.12,500.12,0,0,1-55.13,96.27A7,7,0,0,1,585.53,337.32Zm-27.69-75.13a15.75,15.75,0,0,1,6.34,3.46c8.61,7.28,16.9,24.94,23.7,52a491.79,491.79,0,0,0,38.88-70.46C602.4,233.75,578.05,241.69,557.84,262.19Z"/><path class="cls-9" d="M515.65,461.31c-.76.2-1.44-1.55-1.52-3.9h0c-.09-2.35.46-4.47,1.22-4.73s1.48,1.47,1.57,3.89S516.43,461.12,515.65,461.31Z"/><path class="cls-6" d="M547,520.94l3.41,98.28-.32-.32-.06-.06c-13.25-13.61-23.79-52.56-29.51-97.25,6.4-3.05,15.13-3.72,26.3-.7Z"/><path class="cls-7" d="M550.38,624.59l-.12-.13,0,0C542.8,616.5,536.1,601.58,530.6,582c-4.74-16.92-8.64-37.46-11.46-59.67a12.16,12.16,0,0,1,0-3.31c.16-1,.45-1.61.83-1.81,6.68-3.49,15.67-4.38,26.65-1.89l.18,0c1.34.31,2.53,3.11,2.64,6.27l3.47,100.15c.11,3.07-.89,4.46-2.23,3.16Zm-27.8-99.15c5.51,40,14.6,72.41,25.22,85.54l-2.95-85.14C535.94,523.38,528.44,523.4,522.58,525.44Z"/><path class="cls-6" d="M592.59,546.53c-8.66,61.85-25.19,88.65-41.7,73.16v0h0l-.25-.24-.14-.13-.06-.07L547,520.94C560.49,524.61,576.09,533.22,592.59,546.53Z"/><path class="cls-7" d="M550.68,624.9l-.19-.21c-1.29-1.5-2.39-5-2.49-7.9l-3.34-96.49a9.11,9.11,0,0,1,.54-3.73c.41-.93,1-1.38,1.62-1.24h0c13.2,3,29.24,10.93,46.69,24.25a9.49,9.49,0,0,1,2.86,4.51,13.67,13.67,0,0,1,.62,6.08c-4.85,33.43-12.18,57.51-20.67,70.19-8.08,12.06-16.84,13.18-25.16,5l0,0a2.47,2.47,0,0,1-.28-.28Zm-.07-.08h0Zm-.41-.52Zm0,0Zm-.54-96.94,3.06,88.25c13.22,8.55,26.79-13.7,34.71-65.76C573.62,538.73,560.74,531.29,549.66,527.36Z"/><path class="cls-7" d="M592.86,554.1a4.43,4.43,0,0,1-1.22-.76c-2.31-2-3.74-6.58-3.24-10.28,1.77-13.07,3.1-27.38,3.92-42.43.22-4.14,2.41-6.91,4.95-6.14s4.58,5,4.32,9.34c-1,16.47-2.54,32.09-4.6,46.33C596.53,553.35,594.79,554.85,592.86,554.1Z"/><path class="cls-7" d="M520.69,526c-.66-.26-1.29-1.74-1.55-3.73-1.09-8.66-2-17.62-2.79-26.67-.2-2.35.25-4.52,1-4.84s1.58,1.35,1.79,3.77c.77,8.94,1.71,17.77,2.81,26.29.32,2.48-.07,4.8-.86,5.17A.53.53,0,0,1,520.69,526Z"/><path class="cls-6" d="M538.7,281.24l3.41,98.28-.35.31c-10.78,9.28-19.35,13.86-25.7,14.93,2.49-47.42,10.16-92,22.29-112.93l.06-.1h0Z"/><path class="cls-7" d="M542.31,385.13l-.36.29c-10.62,8.66-19.42,13.14-26.09,14-.39,0-.73-.41-1-1.26a10.85,10.85,0,0,1-.25-3.26c2.6-50.74,10.9-96.23,23.49-118.58l.08-.14c.13-.23.25-.45.38-.65,1.22-2,2.29-1.21,2.39,1.86l3.47,100.15C544.57,380.65,543.6,384.08,542.31,385.13Zm-24.52,4.6c5.84-1.69,13.2-6.19,21.86-13.78l-2.95-85.16C527.13,309.76,520.42,346.94,517.79,389.73Z"/><path class="cls-6" d="M585.27,329.74c-15.14,21.37-30,38.38-43.16,49.78l-3.41-98.28.06-.1a2.39,2.39,0,0,1,.13-.21c.07-.14.15-.25.22-.38h0l0,0C554.36,255.86,572.54,273.19,585.27,329.74Z"/><path class="cls-7" d="M542.31,385.13a1,1,0,0,1-1.67-.3,6.83,6.83,0,0,1-.79-3.35L536.5,285a21.12,21.12,0,0,1,1.9-9.15c.1-.21.21-.39.32-.58s.17-.29.25-.43l.06-.08c7.64-12.75,16.35-16.55,25.15-9.1,9.25,7.83,18.13,27.63,25.17,58.09a15.1,15.1,0,0,1-.22,6.39,16.75,16.75,0,0,1-2.57,6c-16.06,21.87-31.33,38.35-44.25,48.95ZM541.2,283.48l3.06,88.25c10.75-10.23,23-24.54,35.69-42.52C568.6,281.94,553.68,267.5,541.2,283.48Zm-3.08-7.05h0Zm0,0Z"/><path class="cls-7" d="M593.38,384.49c-2.23,1.29-4.21-.4-4.64-4.06-1.94-16.48-4.42-31.64-7.35-45-.74-3.36.35-8.64,2.49-11.9s4.66-3.32,5.47.17a474.47,474.47,0,0,1,8.37,48.9c.51,4.19-1.19,9.33-3.72,11.41A5.51,5.51,0,0,1,593.38,384.49Z"/><path class="cls-7" d="M515.27,429.86a.44.44,0,0,1-.19.07c-.77.12-1.37-1.73-1.35-4.14.09-10.43.39-20.81.92-30.94.13-2.53.86-4.65,1.65-4.74s1.35,2,1.21,4.56c-.54,10-.86,20.24-1,30.56C516.53,427.5,516,429.46,515.27,429.86Z"/><path class="cls-9" d="M597.44,434.67c-2.58.74-4.74-2.14-4.89-6.42h0c-.14-4.28,1.77-8.51,4.34-9.49s5,1.83,5.13,6.34S600.1,433.9,597.44,434.67Z"/><path class="cls-7" d="M547.21,526.54c-1.32-.41-2.45-3.2-2.55-6.24l-.79-22.85c-.11-3,.84-5.46,2.14-5.4s2.52,2.67,2.63,5.82l.82,23.73C549.57,524.75,548.55,527,547.21,526.54Z"/><path class="cls-7" d="M543.29,413.58c-1.27.74-2.37-1.13-2.48-4.17l-1-27.93c-.11-3,.81-6.42,2.07-7.56s2.43.42,2.54,3.58l1,29C545.58,409.65,544.59,412.83,543.29,413.58Z"/><path class="cls-7" d="M521.15,484c-.64,0-1.23-1-1.48-2.49L515.8,458l-1.9,23.69c-.11,1.46-.57,2.45-1.12,2.47h0c-.54,0-1-.94-1.26-2.35L506,444.47a7.4,7.4,0,0,1,.58-4.42c.57-.86,1.24-.23,1.49,1.42l4.22,27.79,1.81-23.46c.12-1.54.58-2.76,1.16-3h0c.58-.26,1.14.51,1.37,1.91l3.87,22.9L523,434.09c.17-2.18,1-3.83,1.88-3.68s1.47,2.09,1.29,4.32l-3.71,46.46c-.13,1.6-.67,2.72-1.32,2.77Z"/><path class="cls-7" d="M539.35,481.52h-.11c-.87,0-1.65-1.29-2-3.07L529.75,433c-.34-2.05.12-4.6,1-5.72s2-.37,2.37,1.74L539,463.32l3.84-26.88c.28-1.92,1.09-3.45,2-3.81s1.86.52,2.26,2.24l5.75,25.24,4.72-41.61c.33-2.94,1.83-5.31,3.38-5.29s2.6,2.54,2.24,5.59l-7,58.46c-.25,2.1-1.19,3.59-2.32,3.7h-.07c-1.08.05-2.08-1.2-2.5-3.12l-6-27.22-4.19,28C540.93,480.35,540.19,481.49,539.35,481.52Z"/><path class="cls-7" d="M589,482.49h0c-1.78,0-3.37-1.7-4-4.23l-14.83-64.43a9.79,9.79,0,0,1,2-8.13c1.77-1.86,3.78-1.14,4.45,1.65l11.49,47.8,7.15-43.61c.48-2.93,2.13-5.54,4.12-6.48l.07,0c2-.9,3.9.11,4.68,2.57l12.52,39.54,11.4-65.28c.81-4.6,4.27-8.88,7.84-9.53s6,2.74,5.11,7.63l-17.37,92.87c-.59,3.17-2.72,5.45-5.19,5.64s-4.63-1.67-5.49-4.55l-12.3-41-7.84,45C592.35,480.62,590.78,482.45,589,482.49Z"/></g></g></g><g id="Layer_1" data-name="Layer 1"><polygon class="cls-10" points="158.62 480.4 388.38 329.81 401.18 584.11 158.62 480.4"/><g id="instrument"><path class="cls-11" d="M140.75,569.84l.27,2c-.59.26-1.06.55-1.51.77l-1.07-2.28L133.09,566l2.83-.89,3.86-1.22,2.58-.81Z"/><path class="cls-12" d="M140.75,569.84l.27,2c-.59.26-1.06.55-1.51.77l-1.07-2.28L133.09,566l2.83-.89,3.86-1.22,2.58-.81Z"/><path class="cls-13" d="M124.74,464.66a2.43,2.43,0,0,1-1.1,2c-.78.41-1.39-.08-1.84.36s0,1.06-.37,1.84a2.27,2.27,0,0,1-3.5.56c-1-1-1-2.93-.37-4.24,1.13-2.46,4.73-3.7,6.26-2.57A2.49,2.49,0,0,1,124.74,464.66Z"/><path class="cls-13" d="M110.76,464.66c0-.17.08-.33.13-.48l0-.17s0-.05,0-.07a2.17,2.17,0,0,1,.07-.24,1.22,1.22,0,0,1,.07-.17v0a1.88,1.88,0,0,1,.12-.3h0l.09-.21a1.39,1.39,0,0,1,.12-.28c0-.09.08-.18.12-.27.14-.3.3-.59.46-.87l.15-.24.11-.18.2-.3a0,0,0,0,1,0,0v0h0l0,0,.13-.19.06-.08a3.25,3.25,0,0,1,.23-.29,4.19,4.19,0,0,1,.26-.33l.09-.1c.19-.22.38-.43.6-.64a6,6,0,0,1,.44-.43l0,0,.28-.24.37-.3.35-.26.35-.25.37-.23.38-.23.39-.2.26-.14.31-.14.22-.1h0l.41-.17.38-.13.08,0,.23-.08.37-.11.44-.11.36-.08.13,0,.38-.07h0l.23,0c.43-.06.87-.09,1.32-.11h1l.51,0h.07l.49.06h0l.29.05.3.06a11.88,11.88,0,0,1,3.93,1.53,11.76,11.76,0,0,1,2.28,1.82,10.58,10.58,0,0,1,.83.93l.25.33c.17.22.33.46.48.69a12.14,12.14,0,0,1,1.5,3.48"/><path class="cls-13" d="M133.94,470.56v20.75a2.42,2.42,0,0,1-2.43,2.42H113.18a2.42,2.42,0,0,1-2.42-2.42V470.56A12,12,0,0,0,132.45,474,11.68,11.68,0,0,0,133.94,470.56Z"/><path class="cls-13" d="M129.52,493.73v6.37a1.73,1.73,0,0,1-1.72,1.73H116.9a1.74,1.74,0,0,1-1.73-1.73v-6.37Z"/><path class="cls-13" d="M126.4,501.83v9.29a4,4,0,0,1-7.92,0v-9.29Z"/><path class="cls-13" d="M143.87,477.86v6.35a4,4,0,0,1-4,4h-5.93V473.86h5.93A4,4,0,0,1,143.87,477.86Z"/><path class="cls-13" d="M123.82,462.64l-.15-.1-.34-.16-.19-.06-.39-.08-.42,0a5.62,5.62,0,0,0-4.77,3c-.59,1.29-.65,3.26.37,4.23A2.27,2.27,0,0,0,119,470a2.37,2.37,0,0,0,2.39-1.11c.42-.78-.09-1.39.36-1.83h0c.3-.28.64-.18,1.07-.18a1.56,1.56,0,0,0,.77-.18,1.79,1.79,0,0,0,.48-.38,1.3,1.3,0,0,0,.18-.23,2.7,2.7,0,0,0,.45-1.42A2.52,2.52,0,0,0,123.82,462.64Zm10.12,2a12.14,12.14,0,0,0-1.5-3.48c-.15-.23-.31-.47-.48-.69l-.25-.33a12.24,12.24,0,0,0-.83-.93,11.76,11.76,0,0,0-2.28-1.82,11.88,11.88,0,0,0-3.93-1.53l-.3-.06-.29-.05h0l-.33,0-.16,0h-.07l-.29,0H122c-.45,0-.89.05-1.32.11l-.23,0h0l-.23.05-.15,0-.13,0-.15,0-.21.05-.22.06-.22,0-.21.07-.16,0-.23.08-.08,0-.38.13-.41.17h0l-.22.1-.12.06-.19.08-.26.14-.39.2-.38.23-.37.23c-.12.08-.24.16-.35.25l-.35.26-.37.3-.28.24,0,0a6,6,0,0,0-.44.43c-.16.15-.31.31-.45.47l-.15.17-.09.1-.15.19a.76.76,0,0,0-.11.14,3.25,3.25,0,0,0-.23.29l-.06.08-.13.19,0,0,0,0a0,0,0,0,0,0,0l-.2.3-.11.18-.15.24c-.16.28-.32.57-.46.87,0,.09-.09.18-.12.27a1.39,1.39,0,0,0-.12.28.37.37,0,0,0,0,.11.42.42,0,0,0,0,.1h0c0,.1-.09.2-.12.3v0a1.22,1.22,0,0,0-.07.17,2.17,2.17,0,0,0-.07.24s0,.05,0,.07l0,.17c0,.15-.09.31-.13.48"/><path class="cls-14" d="M110.76,470.56a12,12,0,0,1-.37-2.95,11.92,11.92,0,0,1,.37-2.95"/><path class="cls-13" d="M124.74,464.66a2.43,2.43,0,0,1-1.1,2c-.78.41-1.39-.08-1.84.36s0,1.06-.37,1.84a2.27,2.27,0,0,1-3.5.56c-1-1-1-2.93-.37-4.24,1.13-2.46,4.73-3.7,6.26-2.57A2.49,2.49,0,0,1,124.74,464.66Z"/><path class="cls-13" d="M133.94,470.56a12,12,0,0,0,.37-2.95,11.92,11.92,0,0,0-.37-2.95"/><path class="cls-13" d="M124.74,464.66a2.43,2.43,0,0,1-1.1,2c-.78.41-1.39-.08-1.84.36s0,1.06-.37,1.84a2.27,2.27,0,0,1-3.5.56c-1-1-1-2.93-.37-4.24,1.13-2.46,4.73-3.7,6.26-2.57A2.49,2.49,0,0,1,124.74,464.66Z"/><polyline class="cls-13" points="117.14 449.01 121.98 449.01 121.98 453.81 121.98 454.01 121.98 455.65"/><line class="cls-13" x1="124.28" y1="573.87" x2="124.28" y2="557.11"/><line class="cls-13" x1="124.28" y1="556.04" x2="124.28" y2="545.88"/><polyline class="cls-13" points="124.28 543.72 124.28 517.33 124.28 514.62"/><polyline class="cls-13" points="120.23 514.4 120.23 520.97 120.23 521.85"/><polyline class="cls-13" points="118.49 511.35 118.49 511.35 118.49 511.35 118.49 511.36 118.49 511.36"/><polyline class="cls-13" points="116.33 536.35 116.86 534.25 120.23 520.97"/><line class="cls-13" x1="139.78" y1="563.84" x2="129.99" y2="523.64"/><polyline class="cls-13" points="135.92 565.05 126.17 525.08 125.65 522.97 125.53 522.48 124.28 517.33"/><path class="cls-13" d="M141,571.81a6.83,6.83,0,0,1,1.84-.53c2.29-.33,2.91.69,6.44.92a19.61,19.61,0,0,0,4.23-.18"/><path class="cls-13" d="M131.82,573.67c.79-1.36,1.9-2.84,3.13-2.76s1.34,1.39,2.76,1.84a2.27,2.27,0,0,0,1.8-.18"/><path class="cls-13" d="M107.14,569.59c1.14.46,1.61,1.86,3.16,1.87s1.87-1.22,3.49-1.47a5.41,5.41,0,0,1,4,1.47"/><path class="cls-14" d="M104.39,570.42h0c-.73.68-1.42,1.46-2.56,1.4-1.54-.07-2.19-1.71-3.31-1.29a2.7,2.7,0,0,0-1.65,2.21"/><path class="cls-13" d="M140.75,569.84l.27,2c-.59.26-1.06.55-1.51.77l-1.07-2.28L133.09,566l2.83-.89,3.86-1.22,2.58-.81Z"/><path class="cls-14" d="M116.33,536.35l-7.08,28,2.92,1-5,4.28a2,2,0,0,0-.71-.15,2.84,2.84,0,0,0-2,1l.32-1.58L103,562.16l2.44.84,4-15.92"/><path class="cls-13" d="M124,547.66l.59,28.84,3.08.18L124,582.14a1.75,1.75,0,0,0-.71.05,2.79,2.79,0,0,0-1.71,1.49l-.12-1.61-3.44-6,2.57.16-.34-16.41"/><line class="cls-14" x1="112.41" y1="535.36" x2="109.97" y2="544.99"/></g><path class="cls-15" d="M93.83,465.77a15.27,15.27,0,0,1-29.74,4.88l29.42-8A15.58,15.58,0,0,1,93.83,465.77Z"/><path class="cls-15" d="M55.84,555.87a9,9,0,0,1-.23,2.63l-1.87,7.94L52,573.87H37.91L42,556.46a3.1,3.1,0,0,0,.07-.86l-1.49-23.29a11.4,11.4,0,0,1-4.78-6.83l5.85-.68,10-1.18,6.59-.77a11.34,11.34,0,0,1-4,8.65l.63,9.81Z"/><line class="cls-16" x1="55.92" y1="557.2" x2="54.91" y2="541.31"/><line class="cls-16" x1="55.92" y1="557.2" x2="53.74" y2="566.43"/><path class="cls-17" d="M105.46,490.07l-8.82,5.43-7.15,4.4a4.26,4.26,0,0,1-4.11.21l-8.27-4h0l-6.39-3.08,1.06-2.46A8.58,8.58,0,0,0,71,482.4l14.55,7a2.8,2.8,0,0,0,2.69-.13l12-7.39a4.94,4.94,0,0,1,6.76,1.43A4.85,4.85,0,0,1,105.46,490.07Z"/><path class="cls-17" d="M71.78,490.59l-1.06,2.46-3.6,8.4-2.33,5.44-.46-3.9a1.55,1.55,0,0,0-.79-1.18,1.58,1.58,0,0,0-.94-.18l-9.82,1.14-1.08.13v-1.27l1-.71h0l14.07-9.75.57-.4A5.1,5.1,0,0,0,62.2,482a5.76,5.76,0,0,0-.63.37l-7,4.86.8-1.86.66-1.54a8.57,8.57,0,0,1,15.76,6.75Z"/><path class="cls-18" d="M65,522.07l-6.68.78-6.59.77-10,1.18-5.85.68-2,.23a1.54,1.54,0,0,1-1.72-1.36l-2-17.36a1.55,1.55,0,0,1,1.36-1.72l5.56-.65,3.43-.41,1.07-.12V504l.9-.09.18,0v13.32a4,4,0,0,0,1.87,3.4l0,0a2.37,2.37,0,0,0,.35.19.13.13,0,0,0,.08,0,3.51,3.51,0,0,0,.93.31h.65a4.07,4.07,0,0,0,4.08-4.08v-1l.06,0v-13L51.7,503l1.08-.11,10.76-1.08a1.55,1.55,0,0,1,.79,1.18l.46,3.9,1.57,13.46A1.55,1.55,0,0,1,65,522.07Z"/><path class="cls-19" d="M63.54,501.81l-10.76,1.08L51.7,503v-.1l1.08-.13,9.82-1.14A1.58,1.58,0,0,1,63.54,501.81Z"/><path class="cls-20" d="M95.72,462l-2.21.6-29.42,8-2.43.66-.1-.37a17.65,17.65,0,1,1,34.06-9.29Z"/><rect class="cls-21" x="59.59" y="464.34" width="37.26" height="2.58" rx="1.29" transform="translate(-120.72 37.43) rotate(-15.38)"/><polyline class="cls-16" points="41.5 504.03 40.43 504.14 24.77 505.71"/><g id="earth-2" data-name="earth"><path class="cls-6" d="M426.3,560.33c-19.8,23.6-41.62,23.48-58.58,7,9.92,9.31,19.85-6.8,25-44A173.83,173.83,0,0,1,426.3,560.33Z"/><path class="cls-7" d="M367.84,570.72a8.51,8.51,0,0,1-1.58-4.78c-.08-1.84.49-2.75,1.29-2,8.68,7.78,17.84-6.68,22.71-42.62.3-2.22,1.65-3.17,3.06-2.09,11.94,9.1,24.58,22.12,35.62,37.75a11.72,11.72,0,0,1,2,5.06,5.18,5.18,0,0,1-.85,4.06c-22.14,24.67-45.27,21.85-62.25,4.66Zm26.94-41c-2.91,18-7,31-11.79,38a19.29,19.29,0,0,1-3.49,4C392,576.9,406.4,573.54,420,558.1A174.46,174.46,0,0,0,394.78,529.71Z"/><path class="cls-6" d="M367.2,566.83l-.22-.22c-11.81-11.89-20.1-30.87-24.85-50.34a14.92,14.92,0,0,1,7.35-7.87C352.91,535.25,359.24,558.65,367.2,566.83Z"/><path class="cls-7" d="M367.1,570c-11.81-12.37-20.41-31.58-25.46-52.53a7.89,7.89,0,0,1-.2-1.78,3.79,3.79,0,0,1,.2-1.42,16.36,16.36,0,0,1,7.51-8.48c.46-.24,1,.74,1.19,2.2,3.47,26.87,9.61,48.48,16.76,55.54a8.3,8.3,0,0,1,1.6,4.81c.08,1.88-.53,2.73-1.34,1.93Zm-23.93-52.72c3.49,13.36,8.45,25.49,14.72,35q-1.23-3.56-2.36-7.59A248.55,248.55,0,0,1,349,511.44,13.55,13.55,0,0,0,343.17,517.24Z"/><path class="cls-8" d="M419.23,337.75a295.32,295.32,0,0,1-30.86,55.38c-9.09,12.83-18,23.06-25.93,29.91l-.21.18c-6.47,5.58-11.63,8.33-15.44,9-3.62.62-6.27-.61-7.83-3.42a246.06,246.06,0,0,0-2.52,44.58,213.69,213.69,0,0,0,5.69,42.92,14.92,14.92,0,0,1,7.35-7.87c3.84-1.83,9.09-2.24,15.8-.42l.11,0c8.1,2.2,17.47,7.38,27.38,15.37a173.83,173.83,0,0,1,33.53,37C446.5,536.28,461,492,459.1,438.41,457.26,385.45,440.41,350.32,419.23,337.75Z"/><path class="cls-7" d="M342.21,518.61a2.06,2.06,0,0,1-.57-1.18,223.91,223.91,0,0,1-5.77-43.92,253.65,253.65,0,0,1,2.53-45.58,3.92,3.92,0,0,1,.43-1.41c.17-.27.36-.27.51,0,1.46,2.57,4.06,3.65,7.57,2.89,3.89-.83,9-3.93,15.2-9.54l.22-.19c7.46-6.82,16.2-17.08,25.28-30.36a288.51,288.51,0,0,0,28.71-52.89,16.61,16.61,0,0,1,3.15-5.16c1.2-1.25,2.35-1.73,3.16-1.3,24.41,12.8,42.05,50.83,44,106.31,1.95,56.16-13.05,103.7-36.49,129.81-1.51,1.69-4.34.52-6.34-2.51a173.51,173.51,0,0,0-31.54-36.07c-9.88-8.4-19.08-13.71-26.73-16.13l-.11,0c-6.4-2-11.66-2-15.58-.28a13.7,13.7,0,0,0-7.18,7.29C342.51,518.62,342.36,518.69,342.21,518.61Zm-3-86.64A236.47,236.47,0,0,0,337,473.18a209,209,0,0,0,5.13,39.92,16,16,0,0,1,7-7.35c4-2.1,9.41-2.63,16-1.14l.11,0c7.93,1.82,17.57,6.57,28.05,14.57a171.31,171.31,0,0,1,31.76,32.48c17.93-25,28.71-65.32,27.12-111.32-1.57-45.28-14.58-78.53-33.49-93.27A304,304,0,0,1,389.15,397c-9.65,13.14-18.83,23-26.59,29.41l-.21.18c-6.39,5.2-11.68,7.89-15.68,8.39C343.33,435.38,340.83,434.3,339.19,432Z"/><path class="cls-6" d="M360.18,364.34c-7.28,12.58-11.9,39.36-13.39,67.85-3.62.62-6.27-.61-7.83-3.42,3.29-22,10.15-45.58,21-64.09Z"/><path class="cls-7" d="M346.88,434.86a.43.43,0,0,1-.21.11c-3.76.47-6.46-1-8.08-4a6.31,6.31,0,0,1-.19-3.06c3.49-23.67,10.62-47.6,21.47-66.6l.24-.42c.74-1.23,1.39-.74,1.44,1.14a12.19,12.19,0,0,1-1.24,5.63c-6.58,11-11.11,35.89-12.65,64.46A4.68,4.68,0,0,1,346.88,434.86Zm-7-7.51a6.26,6.26,0,0,0,6.2,2.2c1-17.24,3.05-33,6-45.76A190.19,190.19,0,0,0,339.89,427.35Z"/><path class="cls-6" d="M419.23,337.75a295.32,295.32,0,0,1-30.86,55.38c-7.64-34-18.57-44.39-27.71-29.59C376.33,337.54,398,325.13,419.23,337.75Z"/><path class="cls-7" d="M388.53,397.68c-1.09,1-2.12.56-2.49-1.12-7.24-33-17.26-42.2-25.3-29.57-.74,1.16-1.37.59-1.41-1.26a12.53,12.53,0,0,1,1.21-5.57l0,0C376.22,333.37,399,317.53,422.63,330c1.62.85,1.45,5-.36,9.19A300.75,300.75,0,0,1,389.15,397,4.29,4.29,0,0,1,388.53,397.68Zm-16.64-45.14a9.54,9.54,0,0,1,3.81,2.07c5.17,4.38,10.15,15,14.24,31.24a295.17,295.17,0,0,0,23.36-42.34C398.67,335.45,384,340.22,371.89,352.54Z"/><path class="cls-9" d="M346.54,472.18c-.46.12-.86-.93-.91-2.34h0c-.05-1.41.28-2.68.73-2.84s.89.89.95,2.34S347,472.06,346.54,472.18Z"/><path class="cls-6" d="M365.39,508l2.05,59-.2-.19,0,0c-8-8.18-14.29-31.58-17.72-58.43,3.84-1.83,9.09-2.24,15.8-.42Z"/><path class="cls-7" d="M367.41,570.29l-.07-.08,0,0c-4.46-4.77-8.49-13.73-11.79-25.51a255,255,0,0,1-6.89-35.86,7.26,7.26,0,0,1,0-2c.1-.58.27-1,.5-1.09,4-2.1,9.41-2.63,16-1.14l.11,0c.8.18,1.52,1.87,1.59,3.76l2.08,60.18c.07,1.85-.53,2.68-1.34,1.9ZM350.7,510.71c3.32,24.06,8.78,43.51,15.16,51.4L364.09,511C358.73,509.47,354.23,509.48,350.7,510.71Z"/><path class="cls-6" d="M392.77,523.38c-5.2,37.16-15.13,53.27-25,44h0l-.14-.14-.09-.08,0,0-2.05-59C373.49,510.21,382.86,515.39,392.77,523.38Z"/><path class="cls-7" d="M367.59,570.47a.69.69,0,0,1-.11-.13,8.82,8.82,0,0,1-1.5-4.74l-2-58a5.49,5.49,0,0,1,.33-2.24c.24-.56.59-.83,1-.74h0c7.93,1.82,17.57,6.57,28.05,14.57a5.66,5.66,0,0,1,1.73,2.71,8.25,8.25,0,0,1,.37,3.65c-2.92,20.08-7.32,34.55-12.43,42.17-4.85,7.25-10.11,7.92-15.11,3l0,0-.17-.17Zm0-.05h0Zm-.25-.31Zm0,0ZM367,511.87l1.84,53c7.94,5.14,16.09-8.23,20.85-39.51C381.37,518.69,373.63,514.23,367,511.87Z"/><path class="cls-7" d="M392.93,527.93a2.38,2.38,0,0,1-.73-.46,7.62,7.62,0,0,1-1.94-6.17c1.06-7.86,1.85-16.45,2.35-25.49.13-2.49,1.45-4.16,3-3.7s2.75,3,2.6,5.62c-.59,9.89-1.52,19.28-2.76,27.84C395.14,527.48,394.09,528.38,392.93,527.93Z"/><path class="cls-7" d="M349.57,511.06c-.39-.15-.78-1-.93-2.24-.66-5.2-1.22-10.58-1.68-16-.12-1.41.15-2.71.61-2.91s.95.82,1.08,2.27c.46,5.37,1,10.67,1.69,15.79.19,1.49,0,2.88-.52,3.11A.31.31,0,0,1,349.57,511.06Z"/><path class="cls-6" d="M360.4,364l2,59.05-.21.18c-6.47,5.58-11.63,8.33-15.44,9,1.49-28.49,6.11-55.27,13.39-67.85l0-.06h0Z"/><path class="cls-7" d="M362.56,426.41l-.21.17c-6.39,5.2-11.68,7.89-15.68,8.39-.23,0-.44-.25-.58-.76a6.87,6.87,0,0,1-.15-2c1.57-30.49,6.55-57.82,14.12-71.25l0-.08.23-.39c.73-1.21,1.38-.73,1.44,1.12l2.09,60.17C363.92,423.72,363.33,425.77,362.56,426.41Zm-14.73,2.76c3.51-1,7.93-3.72,13.14-8.28l-1.78-51.17C353.44,381.12,349.41,403.46,347.83,429.17Z"/><path class="cls-6" d="M388.37,393.13c-9.09,12.83-18,23.06-25.93,29.91l-2-59.05,0-.07a.83.83,0,0,1,.08-.12l.13-.23h0v0C369.8,348.74,380.73,359.15,388.37,393.13Z"/><path class="cls-7" d="M362.56,426.41a.62.62,0,0,1-1-.19,4,4,0,0,1-.48-2l-2-58a12.73,12.73,0,0,1,1.14-5.5c.07-.12.13-.24.2-.35l.15-.25,0-.06c4.59-7.66,9.82-9.94,15.11-5.47,5.56,4.71,10.89,16.61,15.12,34.91a9.05,9.05,0,0,1-.13,3.84,10.25,10.25,0,0,1-1.54,3.63c-9.65,13.14-18.83,23-26.59,29.41Zm-.66-61.08,1.84,53a177.15,177.15,0,0,0,21.44-25.54C378.36,364.41,369.39,355.73,361.9,365.33Zm-1.85-4.24h0Zm0,0Z"/><path class="cls-7" d="M393.24,426c-1.33.78-2.52-.24-2.78-2.44-1.17-9.9-2.66-19-4.42-27a10.79,10.79,0,0,1,1.5-7.15c1.32-2,2.8-2,3.28.1a283.45,283.45,0,0,1,5,29.38c.31,2.52-.71,5.61-2.23,6.86A2.86,2.86,0,0,1,393.24,426Z"/><path class="cls-7" d="M346.32,453.28a.31.31,0,0,1-.12.05c-.46.07-.82-1-.81-2.49.05-6.27.24-12.51.55-18.59.08-1.52.52-2.8,1-2.85s.81,1.17.73,2.74c-.32,6-.52,12.16-.58,18.36C347.07,451.86,346.74,453,346.32,453.28Z"/><path class="cls-9" d="M395.69,456.17c-1.55.45-2.85-1.28-2.94-3.85h0c-.09-2.57,1.06-5.12,2.61-5.7s3,1.1,3.08,3.81S397.28,455.71,395.69,456.17Z"/><path class="cls-7" d="M365.5,511.37c-.78-.24-1.46-1.92-1.53-3.75l-.47-13.73c-.07-1.82.5-3.28,1.29-3.24s1.51,1.6,1.57,3.5l.5,14.25C366.92,510.3,366.31,511.63,365.5,511.37Z"/><path class="cls-7" d="M363.15,443.5c-.76.45-1.42-.68-1.49-2.5l-.58-16.79c-.06-1.82.49-3.85,1.25-4.54s1.46.26,1.53,2.15l.6,17.42C364.53,441.14,363.93,443.05,363.15,443.5Z"/><path class="cls-7" d="M349.85,485.79c-.38,0-.74-.6-.89-1.5l-2.32-14.11-1.15,14.24c-.07.87-.34,1.47-.67,1.48h0c-.33,0-.63-.56-.76-1.41l-3.33-22.43a4.53,4.53,0,0,1,.34-2.66c.35-.51.75-.13.9.86l2.54,16.7,1.08-14.1c.07-.92.36-1.66.7-1.82h0c.35-.15.68.31.82,1.15l2.33,13.76L351,455.82c.1-1.3.6-2.3,1.12-2.21s.89,1.26.78,2.6l-2.23,27.91c-.08,1-.4,1.64-.8,1.67Z"/><path class="cls-7" d="M360.78,484.32h-.06c-.53,0-1-.77-1.17-1.84L355,455.19a4.9,4.9,0,0,1,.64-3.43c.57-.68,1.21-.22,1.42,1l3.52,20.58,2.31-16.15a2.89,2.89,0,0,1,1.21-2.28c.58-.23,1.12.31,1.36,1.34l3.45,15.17,2.84-25c.2-1.77,1.1-3.2,2-3.18s1.56,1.52,1.35,3.36L371,481.76c-.16,1.26-.72,2.16-1.4,2.22h0c-.65,0-1.25-.73-1.5-1.88l-3.61-16.36-2.51,16.83C361.73,483.62,361.29,484.3,360.78,484.32Z"/><path class="cls-7" d="M390.6,484.9h0c-1.07,0-2-1-2.37-2.54l-8.91-38.71a5.87,5.87,0,0,1,1.19-4.88c1.07-1.12,2.28-.69,2.68,1l6.9,28.72,4.3-26.2a5.25,5.25,0,0,1,2.47-3.9l0,0c1.21-.54,2.35.07,2.81,1.55l7.53,23.76,6.85-39.23c.48-2.76,2.56-5.33,4.71-5.73s3.62,1.65,3.07,4.59l-10.44,55.8a3.81,3.81,0,0,1-3.12,3.39,3.4,3.4,0,0,1-3.29-2.73l-7.4-24.63-4.71,27.05C392.63,483.78,391.69,484.88,390.6,484.9Z"/></g><path class="cls-17" d="M68.43,487.29a4,4,0,0,1-1.66,2.59l-13.72,9.5-.92.64a3.51,3.51,0,0,0-1.5,2.88v13.17l-.06,0v1a4.09,4.09,0,0,1-5.65,3.77h0a.13.13,0,0,1-.08,0l-.13-.07-.22-.12,0,0a4,4,0,0,1-1.87-3.4V503.92l-.18,0v-1.45a3.77,3.77,0,0,1,.18-1.17v-3A2.82,2.82,0,0,1,43.79,496l.14-.1,6.77-4.69,11.48-8a5.09,5.09,0,0,1,.5-.3,4,4,0,0,1,5.75,4.32Z"/><circle class="cls-22" cx="437" cy="422" r="283.5"/></g></svg>