<svg xmlns="http://www.w3.org/2000/svg" viewBox="0 0 412.55 212.62"><defs><style>.cls-1,.cls-4,.cls-6,.cls-7,.cls-9{fill:#004425;}.cls-2,.cls-8{fill:#bcc3c3;}.cls-2,.cls-3,.cls-4,.cls-5{stroke:#000;}.cls-2,.cls-3,.cls-4,.cls-5,.cls-6,.cls-7{stroke-miterlimit:10;}.cls-3{fill:none;}.cls-5{fill:#7a545f;}.cls-6{stroke:#fff;}.cls-7{stroke:#bcc3c3;stroke-width:2px;}.cls-9{font-size:51.34px;font-family:MyriadPro-Regular, Myriad Pro;}.cls-10{letter-spacing:0.02em;}</style></defs><g id="Layer_1" data-name="Layer 1"><g id="Logo"><path class="cls-1" d="M171.52,130.59a24.5,24.5,0,0,1-8.65-3.73,24.93,24.93,0,0,1-3.63-38.27,24.12,24.12,0,0,1,4.12-3.33,24.76,24.76,0,0,1,8.09-3.39l4.33-1,0-.06-1.74-4c-.32-.74-.65-1.46-1-2.17A73.34,73.34,0,0,0,159.9,55.6c-.18-.19-.35-.38-.53-.56l-1-1h0l0,0-.19-.18c-.09-.09-.17-.18-.28-.28l-.24-.23-.23-.23-.57-.53a73.82,73.82,0,0,0-43.53-19.64l-1-.09c-1.81-.14-3.61-.22-5.37-.23h-.06c-.85,0-1.67,0-2.58,0h0l-.78,0-2.05.11-1,.08a73.8,73.8,0,0,0-44.37,19.6c-.21.19-.41.37-.59.55l-.93.9-.49.49-.49.5c-.18.17-.35.36-.52.54A73.87,73.87,0,0,0,33.08,99c0,.34-.07.69-.09,1h0c-.16,1.8-.24,3.61-.26,5.39v.06c0,.27,0,.54,0,.8q0,.9,0,1.8c0,.25,0,.5,0,.75,0,.68.06,1.38.11,2.09l.06.94a73.86,73.86,0,0,0,19.19,44.24c.18.2.37.41.57.61l.76.81.35.36.53.53.49.49a73.78,73.78,0,0,0,44.71,20.76l1,.09h0c1.8.14,3.6.22,5.37.23h.51l2.13,0,.79,0,2-.11,1-.08A73.8,73.8,0,0,0,156.87,160l.56-.52.87-.85.45-.45.48-.5.53-.54a73.31,73.31,0,0,0,13.33-19.41c.34-.71.67-1.44,1-2.17l1.73-4h0l0-.06ZM155,151.6c-.17.18-.33.36-.51.54l-.47.49-.48.5-.25.24-.1.1c-.43.43-.87.85-1.31,1.26l-.57.53a66.53,66.53,0,0,1-38.58,17.18l-1,.08-2,.13-.76,0c-.92,0-1.78,0-2.63,0H106c-1.89,0-3.83-.11-5.77-.29l-1-.1a66.41,66.41,0,0,1-38.77-18.12l-.51-.5c-.17-.16-.34-.32-.5-.49l-.41-.41,0,0-.28-.29,0,0c-.39-.4-.77-.81-1.16-1.23l-.55-.62a66.53,66.53,0,0,1-16.67-38.31c0-.32-.05-.63-.08-1,0-.67-.09-1.33-.12-2l0-.75c0-.77,0-1.55,0-2.31,0-.25,0-.49,0-.76v0c0-1.92.12-3.86.31-5.77,0-.35.07-.69.12-1A66.58,66.58,0,0,1,57.87,61l.5-.54.48-.5.43-.44,0-.05.36-.36,0,0c.45-.44.89-.88,1.36-1.31l.57-.53h0a66.56,66.56,0,0,1,38.45-17.06h0l1-.08,2-.13.75,0c1,0,1.84,0,2.72,0h.37c1.89,0,3.82.11,5.76.29l1,.1A66.54,66.54,0,0,1,151.3,57.35l.58.53.47.44a3.07,3.07,0,0,0,.26.25L153,59l.24.23h0c.43.43.88.89,1.34,1.38l.52.56a66.34,66.34,0,0,1,10.44,14.89,30.7,30.7,0,0,0-5.72,2.82c-.15.09-.3.18-.44.28a32.22,32.22,0,0,0-.64,53.74l.45.29a32,32,0,0,0,6.42,3.25A65.73,65.73,0,0,1,155,151.6Z"/><path class="cls-2" d="M148.29,106.22a28.58,28.58,0,0,1,13.09-24c-.42-1-.86-2-1.33-2.93-.06-.14-.13-.28-.2-.41a59.46,59.46,0,0,0-8.3-12.56c-.82-1-1.68-1.91-2.57-2.82-.54-.55-1.09-1.1-1.65-1.62-.36-.35-.72-.69-1.09-1A59.92,59.92,0,0,0,114.68,46a58.9,58.9,0,0,0-7.8-.61H106c-1.3,0-2.6,0-3.88.12-1,.06-2,.15-3,.26A59.89,59.89,0,0,0,66.2,60.4c-.91.81-1.8,1.64-2.66,2.5-.51.52-1,1-1.51,1.56-.34.36-.67.73-1,1.1A59.78,59.78,0,0,0,46.42,97.62a58.77,58.77,0,0,0-.5,7.78v.11c0,1.65.07,3.28.2,4.9.09,1,.19,2,.33,3A59.89,59.89,0,0,0,60.82,145c.83.93,1.67,1.84,2.55,2.72.53.53,1.07,1.05,1.61,1.56.36.34.73.67,1.1,1a60.18,60.18,0,0,0,9.32,6.81l10-22.58h2.18l.55,2.55h4.59v9.73H95.5l-7.8,15.82a60.68,60.68,0,0,0,10.14,2.29c.89.11,1.77.21,2.67.3q2.7.24,5.46.24c1.68,0,3.35-.07,5-.21h.11c1-.09,2-.2,3-.33a59.63,59.63,0,0,0,19.62-6.24L126.44,145h-6.82l7.28,14.56-3.19,1.36-6.82-14.33h1.53l-.17-9.78h4.54v-2.27h2.95l10.86,22.54a59.62,59.62,0,0,0,8.5-6.11q1.5-1.27,2.91-2.67.87-.85,1.71-1.74c.34-.36.67-.73,1-1.1a60.25,60.25,0,0,0,8.49-12.26l.21-.41c.49-1,.95-1.92,1.39-2.89A28.55,28.55,0,0,1,148.29,106.22ZM130.08,91.87l-2.7,3.07-4.58,25.47h-7.11v3.19h4.92v2.73h-2.19v5H93.2v-4.74H91v-3.9H95.5V120H88.68L84.59,95.85v-10H83.22v1.82H80V85.84h-.91V83.11H76.85V79.47h2.28V77.65H80V75.37h3.18v2.28h1.37V69.59L86.86,54.9h37.57l2.92,5.91V71.23l2.73,2.32ZM111,163.63h4.1V145.89h1.82v-10h4.55v-2.73H89.59v2.73h4.09v10h3.64v17.74h3.19"/><rect class="cls-3" x="97.32" y="125.87" width="16.38" height="2.27"/><circle class="cls-3" cx="105.97" cy="76.28" r="5.91"/><path class="cls-3" d="M117.55,59.42H93.42l-1.1,1.44v10L97.46,74v26.38h16.7V74l5.25-3.43V60.35Zm-4.69,33.76-1.43,1.76H101.06l-1.85-1V66.73L101,64.45l10.37.41,1.53,1.87Z"/><path class="cls-4" d="M95.5,146.8l-7.8,15.82c-1.16-.37-2.3-.77-3.43-1.21l7.59-16.89H86.41L78.94,159c-1.21-.61-2.39-1.26-3.54-1.94l10-22.58h2.18l.55,2.55h4.59v9.73Z"/><path class="cls-3" d="M91.86,144.52l-7.59,16.89q-2.73-1.07-5.33-2.37l7.47-14.52Z"/><path class="cls-5" d="M114.68,46a58.9,58.9,0,0,0-7.8-.61H106c-1.3,0-2.6,0-3.88.12-1,.06-2,.15-3,.26l7.77-42.92Z"/><path class="cls-2" d="M106.88,17.59V45.36H106c-1.3,0-2.6,0-3.88.12Z"/><path class="cls-5" d="M46.45,113.41l-43.64-7.9,43.61-7.89a58.77,58.77,0,0,0-.5,7.78v.11c0,1.65.07,3.28.2,4.9C46.21,111.41,46.31,112.41,46.45,113.41Z"/><path class="cls-2" d="M46.12,110.41l-28.53-4.9H45.92C45.92,107.16,46,108.79,46.12,110.41Z"/><path class="cls-5" d="M163.31,163.59,145.1,151q1.5-1.27,2.91-2.67.87-.85,1.71-1.74c.34-.36.67-.73,1-1.1Z"/><path class="cls-2" d="M158,158.3l-10-10q.87-.85,1.71-1.74Z"/><path class="cls-5" d="M163.76,48.7,151.55,66.31c-.82-1-1.68-1.91-2.57-2.82-.54-.55-1.09-1.1-1.65-1.62-.36-.35-.72-.69-1.09-1Z"/><path class="cls-2" d="M158.49,54,149,63.49c-.54-.55-1.09-1.1-1.65-1.62Z"/><path class="cls-5" d="M66.2,60.4c-.91.81-1.8,1.64-2.66,2.5-.51.52-1,1-1.51,1.56-.34.36-.67.73-1,1.1L49.34,48.7Z"/><path class="cls-2" d="M63.54,62.9c-.51.52-1,1-1.51,1.56L54.61,54Z"/><path class="cls-5" d="M66.08,150.29l-17.2,11.93L60.82,145c.83.93,1.67,1.84,2.55,2.72.53.53,1.07,1.05,1.61,1.56C65.34,149.63,65.71,150,66.08,150.29Z"/><path class="cls-2" d="M65,149.29l-10.82,7.65,9.21-9.21C63.9,148.26,64.44,148.78,65,149.29Z"/><path class="cls-5" d="M114.09,164.91,106,209.81l-8.13-44.9c.89.11,1.77.21,2.67.3q2.7.24,5.46.24c1.68,0,3.35-.07,5-.21h.11C112.09,165.15,113.1,165,114.09,164.91Z"/><path class="cls-2" d="M111.08,165.24l-.11.63-.16.95L106,195V165.45c1.68,0,3.35-.07,5-.21Z"/><circle class="cls-3" cx="105.97" cy="76.28" r="5.91"/><path class="cls-3" d="M117.55,59.42H93.42l-1.1,1.44v10L97.46,74v26.38h16.7V74l5.25-3.43V60.35Zm-4.69,33.76-1.43,1.76H101.06l-1.85-1V66.73L101,64.45l10.37.41,1.53,1.87Z"/><circle class="cls-3" cx="105.97" cy="76.28" r="5.91"/><circle class="cls-2" cx="105.97" cy="76.28" r="5.91"/><path class="cls-1" d="M127.35,71.23V60.81l-2.92-5.91H86.86L84.59,69.59V95.85L88.68,120H95.5v2.73H91v3.9H93.2v4.74h25.22v-5h2.19V123.6h-4.92v-3.19h7.11l4.58-25.47,2.7-3.07V73.55Zm-35-10.37,1.1-1.44h24.13l1.86.93V70.58L114.16,74v26.38H97.46V74l-5.14-3.19Zm21.38,67.29H97.32v-2.28H113.7Zm5.92-12.68a1.3,1.3,0,0,1-1.3,1.3H94.08a1.31,1.31,0,0,1-1.31-1.3v-11a1.31,1.31,0,0,1,1.31-1.31h24.24a1.31,1.31,0,0,1,1.3,1.31Z"/><rect class="cls-3" x="97.32" y="125.87" width="16.38" height="2.27"/><path class="cls-6" d="M111.33,64.86,101,64.45l-1.75,2.28V93.94l1.85,1h10.37l1.43-1.76V66.73ZM106,82.2a5.92,5.92,0,1,1,5.91-5.92A5.92,5.92,0,0,1,106,82.2Z"/><circle class="cls-3" cx="105.97" cy="76.28" r="5.91"/><path class="cls-3" d="M117.55,59.42H93.42l-1.1,1.44v10L97.46,74v26.38h16.7V74l5.25-3.43V60.35Zm-4.69,33.76-1.43,1.76H101.06l-1.85-1V66.73L101,64.45l10.37.41,1.53,1.87Z"/><rect class="cls-7" x="92.77" y="103.12" width="26.84" height="13.65" rx="1.3"/><rect class="cls-2" x="97.32" y="125.87" width="16.38" height="2.27"/><polygon class="cls-1" points="84.58 77.65 84.58 85.84 83.22 85.84 83.22 87.66 80.04 87.66 80.04 85.84 79.13 85.84 79.13 83.11 76.85 83.11 76.85 79.47 79.13 79.47 79.13 77.65 80.04 77.65 80.04 75.37 83.22 75.37 83.22 77.65 84.58 77.65"/><path class="cls-3" d="M100.51,165.21q2.7.24,5.46.24c1.68,0,3.35-.07,5-.21v1.58h-.16"/><polygon class="cls-4" points="121.44 133.15 121.44 135.88 116.89 135.88 116.89 145.89 115.07 145.89 115.07 163.63 110.97 163.63 110.97 145.89 100.51 145.89 100.51 163.63 97.32 163.63 97.32 145.89 93.68 145.89 93.68 135.88 89.59 135.88 89.59 133.15 121.44 133.15"/><path class="cls-4" d="M126.44,145h-6.82l7.28,14.56-3.19,1.36-6.82-14.33h1.53l-.17-9.78h4.54v-2.27h2.95l10.86,22.54c-.94.56-1.91,1.1-2.89,1.61Z"/><path class="cls-1" d="M317.14,74.46H176.86a31,31,0,0,0-3.85.24q-1.53.18-3,.51a31.41,31.41,0,0,0-9.93,4.07l-.4.25a31.76,31.76,0,0,0-.62,53c.13.09.26.18.4.26a31.4,31.4,0,0,0,10.63,4.48q1.5.33,3,.51a31.66,31.66,0,0,0,3.77.23H317.14a31.77,31.77,0,0,0,31.76-31.77A31.8,31.8,0,0,0,317.14,74.46Zm17.95,49.72a25.61,25.61,0,0,1-3.56,3,25.16,25.16,0,0,1-14.39,4.47H176.86q-.53,0-1.05,0a24,24,0,0,1-4.39-.56,25.1,25.1,0,0,1-8.81-3.79,25.4,25.4,0,0,1,.5-42.36,25,25,0,0,1,8.25-3.45,24.65,24.65,0,0,1,4.39-.57q.56,0,1.11,0H317.14a25.39,25.39,0,0,1,17.95,43.35Z"/><path class="cls-8" d="M342.53,106.22a25.22,25.22,0,0,1-7.44,18,25.61,25.61,0,0,1-3.56,3,25.16,25.16,0,0,1-14.39,4.47H176.86q-.53,0-1.05,0l0-.06-4.32-.94a24.5,24.5,0,0,1-8.65-3.73,24.93,24.93,0,0,1-3.63-38.27,24.12,24.12,0,0,1,4.12-3.33,24.76,24.76,0,0,1,8.09-3.39l4.33-1,0-.06q.56,0,1.11,0H317.14A25.42,25.42,0,0,1,342.53,106.22Z"/><text class="cls-9" transform="translate(173.2 124.64) scale(1.13 1)"><tspan class="cls-10">WW</tspan><tspan x="88.5" y="0">W</tspan></text><polygon class="cls-1" points="324.57 120.64 412.55 154.17 373.11 166.05 363.89 206.18 324.57 120.64"/></g></g></svg>