<svg id="Layer_1" data-name="Layer 1" xmlns="http://www.w3.org/2000/svg" viewBox="0 0 612.5 867.64"><defs><style>.cls-1{fill:#54b5a2;}.cls-19,.cls-2{fill:none;}.cls-3{fill:#f5aa21;}.cls-4{fill:#5dc1b7;}.cls-5{fill:#fdffff;}.cls-6{fill:#61bbbb;}.cls-7{fill:#f0ad1e;}.cls-8{fill:#e6e6e6;}.cls-9{fill:#ccc;}.cls-10{fill:#f2f2f2;}.cls-11{fill:#fdf4f2;}.cls-12{fill:#f7931e;}.cls-13{fill:#50b7a2;}.cls-14{fill:#fbb03b;}.cls-15{fill:#857d7a;}.cls-16{opacity:0.68;}.cls-17{fill:#999;}.cls-18{fill:#fbf5f3;}.cls-19{stroke:#000;stroke-miterlimit:10;}.cls-20{fill:#e9b92a;}.cls-21{fill:#65b09d;}.cls-22{fill:#e05b4b;}.cls-23{fill:#ef8733;}.cls-24{fill:#765a8e;}.cls-25{fill:#edae22;}.cls-26{fill:#767164;}.cls-27{fill:#524f40;}.cls-28{fill:#c3a173;}.cls-29{fill:#eeeff3;}.cls-30{fill:#8cc6b9;}.cls-31{fill:#b3b3b3;}.cls-32{fill:#39954a;}</style></defs><g id="surveyor"><path class="cls-1" d="M359.47,273.87H192.23a3.5,3.5,0,0,1-3.5-3.57c.92-47.11,40-85.44,87.12-85.44s86.2,38.33,87.12,85.44a3.5,3.5,0,0,1-3.5,3.57Zm-163.59-7H355.82c-2.68-41.68-37.83-75-80-75S198.56,225.19,195.88,266.87Z"/><path class="cls-1" d="M273.81,337c-.57,0-1.13,0-1.7,0-14.83-.52-30-7.79-41.52-20a74.27,74.27,0,0,1-20.23-46.44,3.5,3.5,0,1,1,7-.44c2,31.45,27.17,58.85,55,59.84,26.48.94,56.77-22.92,59.69-59.9a3.5,3.5,0,0,1,7,.55C335.85,310.83,303.09,337,273.81,337Z"/><path class="cls-1" d="M278.67,620h-.05L146,618.39a3.5,3.5,0,0,1-3.46-3.53l1.61-184.12a3.53,3.53,0,0,1,0-.56,69.12,69.12,0,0,1,16.09-33.87,70.08,70.08,0,0,1,33.87-21.18,3.51,3.51,0,0,1,.79-.12l123.82-4.82a3.5,3.5,0,1,1,.27,7L195.59,382a63.06,63.06,0,0,0-30.07,18.92,62.11,62.11,0,0,0-14.41,30.18l-1.58,180.35L278.71,613a3.5,3.5,0,0,1,0,7Z"/><path class="cls-1" d="M585,867.64h0l-388.35-4.82a3.51,3.51,0,0,1-3.46-3.46l-4.82-398.8a3.5,3.5,0,0,1,3.46-3.54,3.54,3.54,0,0,1,3.54,3.46l4.78,395.38L585,860.64a3.5,3.5,0,0,1,0,7Z"/><path class="cls-1" d="M275.45,650.27"/><path class="cls-1" d="M275.45,863.8a3.5,3.5,0,0,1-3.5-3.5v-210a3.5,3.5,0,0,1,7,0v210A3.5,3.5,0,0,1,275.45,863.8Z"/><path class="cls-1" d="M309.89,864.46a3.51,3.51,0,0,1-3.3-4.68l79.46-221.35c0-.07.05-.13.07-.2l.14-.37a3.5,3.5,0,1,1,6.61,2.31l-.06.16a.42.42,0,0,1,0,.1l-.07.19,0,.06-79.5,221.46A3.5,3.5,0,0,1,309.89,864.46Z"/><path class="cls-1" d="M421.07,554.76a3.51,3.51,0,0,1-3.29-4.69l6.34-17.65a3.5,3.5,0,1,1,6.58,2.36l-6.33,17.66A3.5,3.5,0,0,1,421.07,554.76Z"/><path class="cls-1" d="M489,866.68a3.51,3.51,0,0,1-3.2-2.08L386.24,640.45a4,4,0,0,1-.34-1.52,3.5,3.5,0,0,1,6.75-1.31l.05.12,99.49,224a3.51,3.51,0,0,1-1.78,4.62A3.55,3.55,0,0,1,489,866.68Z"/><path class="cls-1" d="M388.88,865.44h0a3.5,3.5,0,0,1-3.49-3.51l.51-222.44V639a3.53,3.53,0,0,1,3.5-3.49h0a3.46,3.46,0,0,1,3.48,3.45h0v.62L392.38,862A3.5,3.5,0,0,1,388.88,865.44Z"/><path class="cls-1" d="M451.53,512.26H331.73a3.5,3.5,0,0,1-3.5-3.5V386.15a63.4,63.4,0,0,1,126.8,0V508.76A3.5,3.5,0,0,1,451.53,512.26Zm-116.3-7H448V386.15a56.4,56.4,0,0,0-112.8,0Z"/><path class="cls-1" d="M419.72,554.88H363.54a11.2,11.2,0,0,1-11.19-11.19V508.76a3.5,3.5,0,0,1,7,0v34.93a4.2,4.2,0,0,0,4.19,4.19h56.18a4.24,4.24,0,0,0,4.19-4.19V508.76a3.5,3.5,0,0,1,7,0v34.93a11.15,11.15,0,0,1-9.23,11A10.43,10.43,0,0,1,419.72,554.88Z"/><path class="cls-1" d="M396.26,642.51H386.2A20.2,20.2,0,0,1,366,622.34V556a20.13,20.13,0,0,1,.79-5.59,3.5,3.5,0,0,1,6.72,2A12.89,12.89,0,0,0,373,556v66.35a13.19,13.19,0,0,0,13.18,13.17h10.06a13.19,13.19,0,0,0,13.18-13.17V556a13,13,0,0,0-.51-3.64,3.5,3.5,0,0,1,6.72-2,20.13,20.13,0,0,1,.79,5.59v66.35A20.2,20.2,0,0,1,396.26,642.51Z"/><path class="cls-1" d="M482.73,498.59h-31.2a3.5,3.5,0,0,1,0-7h31.2a10.34,10.34,0,0,0,10.33-10.33v-45.5a10.34,10.34,0,0,0-10.33-10.33h-31.2a3.5,3.5,0,0,1,0-7h31.2a17.35,17.35,0,0,1,17.33,17.33v45.5A17.35,17.35,0,0,1,482.73,498.59Z"/><path class="cls-1" d="M391.23,448.74a63.52,63.52,0,0,1-63-53.37,3.5,3.5,0,1,1,6.9-1.14A56.8,56.8,0,0,0,448,385.51a3.55,3.55,0,0,1,3.52-3.5,3.47,3.47,0,0,1,3.48,3.46v.07A64,64,0,0,1,391.23,448.74Z"/><path class="cls-1" d="M377.75,399.9a20.8,20.8,0,0,1-3.14-.24h0c-1.89-.3-8.3-1.71-11.39-7.43-3.23-6-.5-12.21,1.49-16.74,1.67-3.8,6.1-13.88,17.28-18,6.61-2.41,19.15-4.3,24.26,3.84,2.14,3.4,2.55,8.17,1.11,12.76-1.28,4.08-3.74,7.14-6.73,8.41a11.26,11.26,0,0,1-6.51.37c-1.48-.24-2-.28-2.33-.05a18.83,18.83,0,0,0-1.27,3.22,24.26,24.26,0,0,0-1.17,5,9,9,0,0,1-1.81,4.9C385,399.22,380.78,399.9,377.75,399.9Zm15.62-37.44a27.8,27.8,0,0,0-9,1.65c-8.37,3.05-11.81,10.86-13.27,14.2-1.57,3.57-3.35,7.61-1.74,10.6s5.84,3.76,6.31,3.83h0c1.95.31,5.26.26,6.37-1.13.15-.2.19-.28.36-1.5a30.08,30.08,0,0,1,1.48-6.31c1-3,1.71-5,3.55-6.43,2.78-2.19,5.8-1.7,7.81-1.37a5.47,5.47,0,0,0,2.64.09c.84-.35,2.06-1.77,2.78-4.06.81-2.58.67-5.3-.35-6.94C399.12,363.18,396.42,362.46,393.37,362.46Z"/><path class="cls-1" d="M390.42,329.76a3.5,3.5,0,0,1-3.5-3.5v-17L368.09,308a3.5,3.5,0,1,1,.45-7l22.11,1.41a3.5,3.5,0,0,1,3.27,3.49v20.31A3.49,3.49,0,0,1,390.42,329.76Z"/></g><g id="entrepreneur"><g id="Communications"><rect class="cls-2" x="548.5" y="355.5" width="30" height="3"/><rect class="cls-2" x="548.5" y="362.5" width="30" height="3"/><rect class="cls-2" x="548.5" y="368.5" width="30" height="3"/><rect class="cls-2" x="548.5" y="375.5" width="30" height="3"/><rect class="cls-2" x="548.5" y="381.5" width="30" height="3"/><path class="cls-3" d="M549,298.5A60.5,60.5,0,1,0,609.5,359,60.5,60.5,0,0,0,549,298.5Zm33.5,106-10.45-10.45a26,26,0,0,1-34.38-21.6,24.63,24.63,0,0,1-7.17,1.05,25.16,25.16,0,0,1-4.94-.49l-12.82,10,1.74-15.31a25,25,0,1,1,40.75-22.84,25.7,25.7,0,0,1,8.27-1.35,26,26,0,0,1,17.35,45.35Zm-66-53h28.26a19.5,19.5,0,0,1,1.74-1.66V348.5h-30Zm0-7h30v-3h-30Zm0-6h30v-3h-30Zm0,19h23.94a24.77,24.77,0,0,1,1.83-3H516.5Zm0,6h21.7a24.76,24.76,0,0,1,.9-3H516.5Z"/><path class="cls-4" d="M555.23,344.85a25,25,0,1,0-40.75,22.84L512.74,383l12.82-10a25.16,25.16,0,0,0,4.94.49,24.63,24.63,0,0,0,7.17-1.05,26.11,26.11,0,0,1-.17-2.95,25.73,25.73,0,0,1,.7-6H516.5v-3h22.6a25.16,25.16,0,0,1,1.34-3H516.5v-3h25.77a23.88,23.88,0,0,1,2.49-3H516.5v-3h30v1.34A25.6,25.6,0,0,1,555.23,344.85ZM516.5,335.5h30v3h-30Zm0,9v-3h30v3Z"/><path class="cls-5" d="M589.5,369.5a26,26,0,0,0-26-26,25.93,25.93,0,0,0-17,6.34,19.5,19.5,0,0,0-1.74,1.66,23.88,23.88,0,0,0-2.49,3,24.77,24.77,0,0,0-1.83,3,25.16,25.16,0,0,0-1.34,3,24.76,24.76,0,0,0-.9,3,25.73,25.73,0,0,0-.7,6,26,26,0,0,0,26,26,25.75,25.75,0,0,0,8.55-1.45L582.5,404.5l-1.65-15.65A25.89,25.89,0,0,0,589.5,369.5Zm-11,15h-30v-3h30Zm0-6h-30v-3h30Zm0-7h-30v-3h30Zm0-6h-30v-3h30Zm0-7h-30v-3h30Z"/><rect class="cls-2" x="548.5" y="355.5" width="30" height="3"/><rect class="cls-2" x="548.5" y="362.5" width="30" height="3"/><rect class="cls-2" x="548.5" y="368.5" width="30" height="3"/><rect class="cls-2" x="548.5" y="375.5" width="30" height="3"/><rect class="cls-2" x="548.5" y="381.5" width="30" height="3"/><rect class="cls-5" x="516.5" y="335.5" width="30" height="3"/><rect class="cls-5" x="516.5" y="341.5" width="30" height="3"/><path class="cls-5" d="M546.5,348.5v1.34a19.5,19.5,0,0,0-1.74,1.66H516.5v-3Z"/><path class="cls-5" d="M542.27,354.5a24.77,24.77,0,0,0-1.83,3H516.5v-3Z"/><path class="cls-5" d="M539.1,360.5a24.76,24.76,0,0,0-.9,3H516.5v-3Z"/><rect class="cls-6" x="548.5" y="355.5" width="30" height="3"/><rect class="cls-6" x="548.5" y="362.5" width="30" height="3"/><rect class="cls-6" x="548.5" y="368.5" width="30" height="3"/><rect class="cls-6" x="548.5" y="375.5" width="30" height="3"/><rect class="cls-6" x="548.5" y="381.5" width="30" height="3"/></g><g id="books"><path class="cls-7" d="M537.5,124.5a75,75,0,1,0,75,75A75,75,0,0,0,537.5,124.5Zm39.55,112.76-.55-.11V251.5H505.8V239l-6.26,1.14-14.35-79,37.8-6.87,2.53-12.94,56.4,11,9.1,13.39Z"/><polygon class="cls-8" points="522.99 154.34 519.68 171.24 505.8 171.24 505.8 239.04 499.54 240.18 485.19 161.21 522.99 154.34"/><polygon class="cls-8" points="591.02 165.82 577.05 237.26 576.5 237.15 576.5 182.42 564.4 171.24 519.68 171.24 522.99 154.34 525.52 141.4 581.92 152.43 580.5 164.5 591.02 165.82"/><polygon class="cls-9" points="576.5 182.42 576.5 251.5 505.8 251.5 505.8 171.24 564.4 171.24 564.4 182.42 576.5 182.42"/><polygon class="cls-10" points="576.5 182.42 564.4 182.42 564.4 171.24 576.5 182.42"/><polygon class="cls-10" points="591.02 165.82 580.5 164.5 581.92 152.43 591.02 165.82"/></g><g id="suitecase"><rect class="cls-2" x="439.5" y="81.5" width="9" height="7" rx="1.82"/><path class="cls-11" d="M444,27a52,52,0,1,0,52,52A52,52,0,0,0,444,27Zm36.5,79.6a2.9,2.9,0,0,1-2.9,2.9H408.4a2.9,2.9,0,0,1-2.9-2.9V61.4a2.9,2.9,0,0,1,2.9-2.9h69.2a2.9,2.9,0,0,1,2.9,2.9Z"/><path d="M477.6,58.5H408.4a2.9,2.9,0,0,0-2.9,2.9v45.2a2.9,2.9,0,0,0,2.9,2.9h69.2a2.9,2.9,0,0,0,2.9-2.9V61.4A2.9,2.9,0,0,0,477.6,58.5ZM448.5,86.68a1.81,1.81,0,0,1-1.82,1.82h-5.36a1.81,1.81,0,0,1-1.82-1.82V83.32a1.81,1.81,0,0,1,1.82-1.82h5.36a1.81,1.81,0,0,1,1.82,1.82Z"/><rect class="cls-2" x="439.5" y="81.5" width="9" height="7" rx="1.82"/><path class="cls-12" d="M458,58.5h-3V56.68a7,7,0,0,0-.07-1c-.27-2.07-1.47-3.69-2.73-3.69H434.8c-1.26,0-2.46,1.62-2.73,3.7a6.75,6.75,0,0,0-.07,1V58.5h-3V56.68a10.74,10.74,0,0,1,.09-1.37C429.58,51.65,432,49,434.8,49h17.4c2.82,0,5.22,2.65,5.71,6.3a11,11,0,0,1,.09,1.38Z"/><rect class="cls-7" x="439.5" y="81.5" width="9" height="7" rx="1.82"/><rect x="428.5" y="55.5" width="4" height="3.5"/><rect x="454.5" y="55.5" width="4" height="3.5"/></g><g id="idea-light"><path class="cls-13" d="M301.38,47.76l.12,1.16.27-1ZM317.5,36.5l.87,4.59.75-2.59Zm0,0,.87,4.59.75-2.59ZM301.38,47.76l.12,1.16.27-1Zm0,0,.12,1.16.27-1ZM317.5,36.5l.87,4.59.75-2.59Zm0,0,.87,4.59.75-2.59Zm-16,12.42.27-1-.39-.14ZM311,0a51,51,0,1,0,51,51A51,51,0,0,0,311,0Zm18.62,55.55h0L322.5,75.5v13h-1v3h-20v-3h-3v-13l-5.42-18.39a27,27,0,1,1,36.54-1.56ZM318.37,41.09l.75-2.59-1.62-2ZM301.5,48.92l.27-1-.39-.14Zm-.12-1.16.12,1.16.27-1ZM317.5,36.5l.87,4.59.75-2.59Zm0,0,.87,4.59.75-2.59ZM301.38,47.76l.12,1.16.27-1Zm0,0,.12,1.16.27-1ZM317.5,36.5l.87,4.59.75-2.59Zm0,0,.87,4.59.75-2.59ZM301.38,47.76l.12,1.16.27-1Z"/><path class="cls-14" d="M337.5,36.5a26.85,26.85,0,0,1-7.88,19h0L322.5,75.5h-7.57l3.57-29,4,1.7V40l-3.38,5-.75-4,.75-2.59-1.62-2,.87,4.59-1.87,6.39-1-9-1,8.74-2-8.74-1,9.94-1-8.94-3,8.22V39.5l-2,8.22L304,39.5l-2.23,8.4-.39-.14-.88-8.26-2,2.22v5l2.88,1,.12,1.16.27-1,1.73.6,3.54,27H298.5l-5.42-18.39A27,27,0,1,1,337.5,36.5Z"/><polygon class="cls-15" points="322.5 75.5 322.5 88.5 321.5 88.5 321.5 91.5 301.5 91.5 301.5 88.5 298.5 88.5 298.5 75.5 322.5 75.5"/><polyline class="cls-9" points="316.5 91.5 316.5 93.5 314.5 93.5"/><polyline class="cls-9" points="305.5 91.5 305.5 93.5 307.5 93.5"/><polyline class="cls-9" points="314.5 93.5 314.5 95.5 307.5 95.5 307.5 93.5"/><g class="cls-16"><polygon class="cls-14" points="301.38 47.76 298.5 46.76 298.5 41.72 300.5 39.5 301.38 47.76"/><path class="cls-17" d="M302,48.49l-4-1.37V41.53l2.88-3.2Zm-3-2.09,1.8.63-.68-6.36L299,41.91Z"/></g><polygon class="cls-17" points="301.28 51.69 300.8 47.02 302.37 47.58 301.28 51.69"/><g class="cls-16"><path class="cls-17" d="M318.27,43.24l-1.63-8.6,3,3.75Zm.09-4.88.11.58.1-.33Z"/></g><polygon class="cls-14" points="322.5 40.04 322.5 48.2 318.5 46.5 314.93 75.5 307.04 75.5 303.5 48.5 301.77 47.9 304 39.5 305.5 47.72 307.5 39.5 307.5 47.72 310.5 39.5 311.5 48.44 312.5 38.5 314.5 47.24 315.5 38.5 316.5 47.48 318.37 41.09 319.12 45.08 322.5 40.04"/><path class="cls-17" d="M315.37,76H306.6L303,48.87l-1.87-.65,2.92-11,1.48,8.11,2.43-10v9.56l2.76-7.56.71,6.38.84-8.29,2,8.86L315.51,34,316.72,45l1.76-6,.91,4.84L323,38.4V49l-4.08-1.74Zm-7.89-1h7l3.59-29.22.72.3-.54-2.85-2,6.78-.79-7-.83,7.24-2-8.62-1.16,11.59-1.29-11.5L307,50.55V43.67l-1.57,6.45-1.52-8.33-1.54,5.79,1.59.55ZM319,46.17l3,1.27V41.68Z"/></g><g id="graph"><circle class="cls-18" cx="175.5" cy="91.5" r="71"/><line class="cls-19" x1="136" y1="58" x2="215" y2="58"/><line class="cls-19" x1="136" y1="66" x2="215" y2="65"/><line class="cls-19" x1="136" y1="73" x2="215" y2="73"/><line class="cls-19" x1="136" y1="80" x2="215" y2="80"/><line class="cls-19" x1="136" y1="86.5" x2="215" y2="86.5"/><line class="cls-19" x1="136" y1="94.5" x2="215" y2="93.5"/><line class="cls-19" x1="136" y1="101.5" x2="215" y2="101.5"/><line class="cls-19" x1="136" y1="108.5" x2="215" y2="108.5"/><line class="cls-19" x1="136" y1="115.5" x2="215" y2="115.5"/><line class="cls-19" x1="136" y1="123.5" x2="215" y2="122.5"/><line class="cls-19" x1="136" y1="130.5" x2="215" y2="130.5"/><line class="cls-19" x1="136" y1="137.5" x2="215" y2="137.5"/><line class="cls-19" x1="136.5" y1="58.5" x2="136.5" y2="137.5"/><rect class="cls-20" x="139" y="86" width="11" height="49"/><rect class="cls-21" x="153.5" y="60.5" width="11" height="75"/><rect class="cls-22" x="169.5" y="113.5" width="11" height="22"/><rect class="cls-23" x="184.5" y="72.5" width="11" height="63"/><rect class="cls-24" x="199.5" y="124.5" width="11" height="11"/></g><g id="locker"><path class="cls-25" d="M88.5,159.5a43,43,0,1,0,43,43A43,43,0,0,0,88.5,159.5ZM82,213a6,6,0,1,1,7.5,5.81v4.69h-2V219A6,6,0,0,1,82,213Z"/><path class="cls-2" d="M94,213a6,6,0,0,1-4.5,5.81v4.69h-2V219a6,6,0,1,1,6.5-6Z"/><rect class="cls-26" x="66.5" y="197.5" width="42" height="36" rx="2.82"/><path class="cls-27" d="M89.5,218.81v4.69h-2V219a6,6,0,1,1,2-.17Z"/><path d="M77.09,197.5a7.72,7.72,0,0,1-.09-1.18V183.68A7.69,7.69,0,0,1,84.68,176h7.64a7.69,7.69,0,0,1,7.68,7.68v12.64a7.72,7.72,0,0,1-.09,1.18h5a11.66,11.66,0,0,0,.06-1.18V183.68A12.7,12.7,0,0,0,92.32,171H84.68A12.7,12.7,0,0,0,72,183.68v12.64a11.66,11.66,0,0,0,.06,1.18Z"/></g><g id="cliffboard"><path class="cls-1" d="M99.5,303v-1m0-4v-1M80,264a80,80,0,1,0,80,80A80,80,0,0,0,80,264Zm19.5,46v-1"/><path class="cls-28" d="M99.5,303v-1m0,8v-1m0-10.5h16.66a5.34,5.34,0,0,1,5.34,5.34v94.32a5.34,5.34,0,0,1-5.34,5.34H42.84a5.34,5.34,0,0,1-5.34-5.34V303.84a5.34,5.34,0,0,1,5.34-5.34H59.5"/><path class="cls-29" d="M99.5,310v-1m0-2.5h20v89h-78v-89h18"/><rect class="cls-30" x="59.5" y="290.5" width="40" height="22"/><path class="cls-31" d="M52.5,333a6.5,6.5,0,1,1,6.5-6.5A6.51,6.51,0,0,1,52.5,333Zm0-12a5.5,5.5,0,1,0,5.5,5.5A5.51,5.51,0,0,0,52.5,321Z"/><path class="cls-31" d="M52.5,351a6.5,6.5,0,1,1,6.5-6.5A6.51,6.51,0,0,1,52.5,351Zm0-12a5.5,5.5,0,1,0,5.5,5.5A5.51,5.51,0,0,0,52.5,339Z"/><path class="cls-31" d="M52.5,368a5.5,5.5,0,1,1,5.5-5.5A5.51,5.51,0,0,1,52.5,368Zm0-10a4.5,4.5,0,1,0,4.5,4.5A4.51,4.51,0,0,0,52.5,358Z"/><path class="cls-31" d="M52.5,386a5.5,5.5,0,1,1,5.5-5.5A5.51,5.51,0,0,1,52.5,386Zm0-10a4.5,4.5,0,1,0,4.5,4.5A4.51,4.51,0,0,0,52.5,376Z"/><rect class="cls-31" x="60.5" y="385" width="22" height="1"/><rect class="cls-31" x="60.5" y="382" width="53" height="1"/><rect class="cls-31" x="61" y="380" width="53" height="1"/><rect class="cls-31" x="61" y="378" width="53" height="1"/><rect class="cls-31" x="61" y="375" width="53" height="1"/><rect class="cls-31" x="60.5" y="367" width="22" height="1"/><rect class="cls-31" x="60.5" y="364" width="53" height="1"/><rect class="cls-31" x="61" y="362" width="53" height="1"/><rect class="cls-31" x="61" y="360" width="53" height="1"/><rect class="cls-31" x="61" y="357" width="53" height="1"/><rect class="cls-31" x="60.5" y="350" width="22" height="1"/><rect class="cls-31" x="60.5" y="347" width="53" height="1"/><rect class="cls-31" x="61" y="345" width="53" height="1"/><rect class="cls-31" x="61" y="343" width="53" height="1"/><rect class="cls-31" x="61" y="340" width="53" height="1"/><rect class="cls-31" x="60.5" y="332" width="22" height="1"/><rect class="cls-31" x="60.5" y="329" width="53" height="1"/><rect class="cls-31" x="61" y="327" width="53" height="1"/><rect class="cls-31" x="61" y="325" width="53" height="1"/><rect class="cls-31" x="61" y="322" width="53" height="1"/><rect class="cls-32" x="59.5" y="309" width="40" height="1"/><rect class="cls-32" x="59.5" y="307" width="40" height="1"/><rect class="cls-32" x="59.5" y="305" width="40" height="1"/><rect class="cls-32" x="59.5" y="302" width="40" height="1"/><rect class="cls-32" x="59.5" y="299" width="40" height="1"/><rect class="cls-32" x="59.5" y="297" width="40" height="1"/><rect class="cls-32" x="59.5" y="295" width="40" height="1"/><rect class="cls-32" x="59.5" y="292" width="40" height="1"/><path class="cls-28" d="M48.07,326.42c1,1.05,2,2.18,3.07,3.16,1.38,1.26,3-.15,4.2-.92q3.82-2.36,7.48-5a1.54,1.54,0,0,0,.54-2.06,1.51,1.51,0,0,0-2-.53c-1.57,1.11-3.17,2.2-4.78,3.25-.79.51-1.59,1-2.39,1.51l-1.26.78-.53.31-.31.19c-.27.16-.28.17,0,0h.8l-.1,0,.66.39c-1.11-1-2.11-2.16-3.16-3.24-1.35-1.38-3.47.74-2.12,2.12Z"/><path class="cls-28" d="M55,337.13a1.74,1.74,0,0,1-.52,1c-.43.57-.88,1.13-1.32,1.69a36.23,36.23,0,0,0-2.49,3.31,8.71,8.71,0,0,0-1.08,3.52,6,6,0,0,1-.81,2.82,1.53,1.53,0,0,0,.53,2.06,1.54,1.54,0,0,0,2.06-.54c1.44-2,.75-4.7,2.14-6.74.76-1.1,1.65-2.14,2.47-3.2s2.07-2.34,2-3.93c-.06-1.92-3.06-1.93-3,0Z"/><path class="cls-28" d="M45.25,342.37A98.62,98.62,0,0,1,59,351.52a1.54,1.54,0,0,0,2.12,0,1.51,1.51,0,0,0,0-2.12,102.09,102.09,0,0,0-14.32-9.62c-1.69-.94-3.21,1.65-1.52,2.59Z"/><path class="cls-28" d="M56.31,358.13h.14l-1.3-.75.08.16-.2-.76c0,1-1,2.11-1.64,2.75a20.78,20.78,0,0,1-2.91,2.39l-1.74,1.25c-.13.1-1.67,1-1.67,1.07s.33.26.28.26-.09-.19,0-.29a2.17,2.17,0,0,1,.64,0c1.09.28,1.8,1.58,2.46,2.41a22.85,22.85,0,0,0,2.89,3,46,46,0,0,0,7,4.86A1.5,1.5,0,0,0,61.86,372a38.08,38.08,0,0,1-7.29-5.24,43.42,43.42,0,0,1-3-3.41,5.36,5.36,0,0,0-3.8-2.09,3.28,3.28,0,0,0-3.36,2.29,2.94,2.94,0,0,0,1.28,3.41c1.62.9,3.22-.23,4.52-1.15S52.78,364,54,363a12.6,12.6,0,0,0,3.14-3.45c.8-1.39,1.75-4.32-.81-4.45-1.93-.1-1.92,2.9,0,3Z"/><path class="cls-28" d="M49.32,379.89c1.63,2.35,3.22,4.71,4.8,7.08a1.53,1.53,0,0,0,2.06.54,121.64,121.64,0,0,1,12.28-7.66c1.7-.92.19-3.51-1.51-2.59a120.68,120.68,0,0,0-12.29,7.66l2.06.54c-1.59-2.37-3.18-4.74-4.81-7.08a1.53,1.53,0,0,0-2-.54,1.51,1.51,0,0,0-.54,2.05Z"/></g></g></svg>